#N canvas 0 102 490 300 10;
#X obj 72 100 clip~ -1 1;
#X obj 73 69 *~, f 9;
#X obj 87 131 -~, f 6;
#X obj 72 160 +~;
#X obj 73 184 /~, f 12;
#X obj 13 8 inlet~;
#X obj 16 236 outlet~;
#X text 74 234 sound output: [-1 .. 1];
#X text 59 8 sound input: [-1 .. 1];
#X obj 224 9 inlet~;
#X text 274 10 intensity control (\$1): > 0;
#X connect 0 0 3 0;
#X connect 0 0 2 0;
#X connect 1 0 0 0;
#X connect 1 0 2 1;
#X connect 2 0 3 1;
#X connect 3 0 4 0;
#X connect 4 0 6 0;
#X connect 5 0 1 0;
#X connect 9 0 1 1;
#X connect 9 0 4 1;
