#N canvas 380 295 708 511 10;
#X obj 142 429 dac~;
#X obj 144 169 sin 2;
#X obj 327 65 tgl 15 0 empty empty empty 17 7 0 10 -262144 -1 -1 1
1;
#X obj 53 270 vsl 15 128 0 10 0 0 empty empty empty 0 -9 0 10 -262144
-1 -1 1270 1;
#X obj 145 401 *~;
#X obj 94 108 vsl 15 128 0 1000 0 0 empty empty empty 0 -9 0 10 -262144
-1 -1 2540 1;
#X obj 330 185 hsl 128 15 0 15 0 0 empty empty empty -2 -8 0 10 -262144
-1 -1 3387 1;
#X obj 545 185 + 1;
#X obj 469 185 % 16;
#X obj 510 185 i;
#X obj 510 80 metro 20;
#X obj 327 228 s beat;
#X obj 144 70 t i;
#X obj 144 40 r beat;
#N canvas 0 50 450 278 (subpatch) 0;
#X array osc 800 float 2;
#X coords 0 1 800 -1 200 140 1 0 0;
#X restore 329 265 graph;
#X obj 191 382 tabwrite~ osc;
#X obj 144 104 - 8;
#X obj 144 138 / 15;
#X obj 144 365 osc~;
#X obj 191 325 r beat;
#X obj 191 353 t b;
#X text 324 39 Button which starts the thing;
#X msg 94 79 200;
#X msg 53 176 1;
#X obj 357 90 s start;
#X obj 53 41 r start;
#X obj 144 230 line~;
#X obj 144 299 *~;
#X msg 144 207 \$1 10;
#X msg 327 110 \; pd dsp 1;
#X connect 1 0 28 0;
#X connect 2 0 10 0;
#X connect 2 0 24 0;
#X connect 2 0 29 0;
#X connect 3 0 4 1;
#X connect 4 0 0 0;
#X connect 4 0 0 1;
#X connect 5 0 27 1;
#X connect 6 0 11 0;
#X connect 7 0 9 1;
#X connect 8 0 6 0;
#X connect 9 0 7 0;
#X connect 9 0 8 0;
#X connect 10 0 9 0;
#X connect 12 0 16 0;
#X connect 13 0 12 0;
#X connect 16 0 17 0;
#X connect 17 0 1 0;
#X connect 18 0 4 0;
#X connect 18 0 15 0;
#X connect 19 0 20 0;
#X connect 20 0 15 0;
#X connect 22 0 5 0;
#X connect 23 0 3 0;
#X connect 25 0 22 0;
#X connect 25 0 23 0;
#X connect 26 0 27 0;
#X connect 27 0 18 0;
#X connect 28 0 26 0;
