#N canvas 397 102 1397 998 10;
#X declare -path tracking;
#X declare -path utils;
#X obj 247 761 dac~;
#X obj 194 169 sin 2;
#X obj 327 315 tgl 15 0 empty empty empty 17 7 0 10 -262144 -1 -1 0
1;
#X obj 125 597 vsl 15 128 0 10 0 0 empty empty empty 0 -9 0 10 -262144
-1 -1 0 1;
#X obj 247 728 *~;
#X obj 94 168 vsl 15 128 0 1000 0 0 empty empty empty 0 -9 0 10 -262144
-1 -1 0 1;
#X obj 330 435 hsl 128 15 0 15 0 0 empty empty empty -2 -8 0 10 -262144
-1 -1 0 1;
#X obj 545 435 + 1;
#X obj 469 435 % 16;
#X obj 510 435 i;
#X obj 194 40 r beat;
#N canvas 0 50 450 278 (subpatch) 0;
#X array osc 800 float 4;
#X coords 0 1 799 -1 200 140 1;
#X restore 396 560 graph;
#X obj 312 719 tabwrite~ osc;
#X obj 194 104 - 8;
#X obj 194 138 / 15;
#X obj 312 662 r beat;
#X obj 312 690 t b;
#X text 324 289 Button which starts the thing;
#X msg 125 565 1;
#X obj 357 340 s start;
#X obj 94 87 r start;
#X obj 194 232 line~;
#X obj 194 299 *~;
#X msg 327 360 \; pd dsp 1;
#X obj 935 107 vsl 15 128 0.01 1 0 1 empty empty empty 0 -9 0 10 -262144
-1 -1 3335 1;
#X obj 935 286 swap 1;
#X obj 935 308 /;
#X floatatom 935 330 5 0 0 0 - - -, f 5;
#X obj 715 397 *~;
#X obj 714 324 +~ 1;
#X obj 714 346 /~ 2;
#X obj 731 376 - 1;
#X obj 715 419 +~ 1;
#X obj 827 399 *~;
#X obj 826 326 +~ 1;
#X obj 826 348 /~ 2;
#X obj 827 421 +~ 1;
#X obj 688 494 fold~;
#X obj 687 519 fold~;
#X obj 195 364 osc~ 100;
#X obj 981 106 vsl 15 128 0.01 1 0 1 empty empty empty 0 -9 0 10 -262144
-1 -1 8338 1;
#X obj 981 285 swap 1;
#X obj 981 307 /;
#X floatatom 981 329 5 0 0 0 - - -, f 5;
#X obj 714 102 vsl 15 128 0.01 300 1 1 empty empty empty 0 -9 0 10
-262144 -1 -1 12425 1;
#X obj 843 378 - 1;
#X obj 825 98 vsl 15 128 0.01 300 1 1 empty empty empty 0 -9 0 10 -262144
-1 -1 5234 1;
#X text 722 282 intensity-wobblers;
#X text 1008 198 intensity;
#X obj 194 324 +~;
#X obj 144 192 vsl 15 128 0 1000 0 0 empty empty empty 0 -9 0 10 -262144
-1 -1 0 1;
#X text 742 474 origami;
#X floatatom 94 314 5 0 0 0 - - -, f 5;
#X floatatom 144 342 5 0 0 0 - - -, f 5;
#X floatatom 714 238 5 0 0 0 - - -, f 5;
#X floatatom 825 234 5 0 0 0 - - -, f 5;
#X floatatom 935 243 5 0 0 0 - - -, f 5;
#X floatatom 981 242 5 0 0 0 - - -, f 5;
#X obj 194 387 s~ barrel;
#X obj 688 462 r~ barrel;
#X obj 876 28 r start;
#X obj 715 301 osc~ 1;
#X obj 825 303 osc~ 1;
#X obj 247 647 catch~ sound;
#X msg 144 166 500;
#X obj 469 464 s beat;
#X obj 687 571 s~ tap;
#X obj 125 510 r start;
#N canvas 644 97 1219 978 sequences 0;
#X obj 136 92 attack~;
#X obj 175 73 bng 15 250 50 0 empty empty empty 17 7 0 10 -262144 -1
-1;
#X obj 136 123 throw~ sound;
#X obj 155 -35 r start;
#X obj 55 -33 r~ barrel;
#X obj 55 -3 clip~ -0.5 0.5;
#X obj 225 -14 r beat;
#X obj 458 -22 r start;
#X obj 130 292 attack~;
#X obj 169 273 bng 15 250 50 0 empty empty empty 17 7 0 10 -262144
-1 -1;
#X obj 130 333 throw~ sound;
#X obj 149 165 r start;
#X obj 49 197 clip~ -0.5 0.5;
#X obj 452 178 r start;
#X obj 49 167 r~ tap;
#X obj 189 197 r beat;
#X obj 536 350 r start;
#X obj 101 656 line;
#X obj 101 603 + 100;
#X obj 101 680 s barrelF;
#X msg 155 -3 200;
#X msg 149 197 200;
#X msg 101 629 \$1 2;
#X msg 458 14 0 8 12;
#X msg 452 214 2 8;
#X obj 107 227 bng 15 250 50 0 empty empty empty 17 7 0 10 -262144
-1 -1;
#X obj 723 -1 r beat;
#X obj 1006 -19 r start;
#X obj 723 104 throw~ sound;
#X obj 723 74 clap~;
#X msg 1006 17 8;
#X msg 102 570 200;
#X msg 141 570 400;
#X msg 536 382 2 10;
#X msg 180 569 600;
#X msg 215 569 800;
#X msg 536 418 3 8;
#X msg 536 489 13;
#X msg 536 453 5 12;
#X obj 249 366 r beat;
#X obj 169 231 sequencer 1 tap;
#X obj 175 31 sequencer 1 barrel;
#X obj 789 252 track 2 melo;
#X obj 867 252 track 3 beatz;
#X obj 705 206 songfile song-1.txt;
#X obj 249 399 sequencer 2 tone-1;
#X obj 249 435 sequencer 2 tone-2;
#X obj 249 470 sequencer 2 tone-3;
#X obj 249 505 sequencer 2 tone-4;
#X obj 723 35 sequencer 3 clap;
#X obj 705 252 track 1 trigs;
#X connect 0 0 2 0;
#X connect 1 0 0 2;
#X connect 3 0 20 0;
#X connect 4 0 5 0;
#X connect 5 0 0 0;
#X connect 6 0 41 0;
#X connect 7 0 23 0;
#X connect 8 0 10 0;
#X connect 9 0 8 2;
#X connect 11 0 21 0;
#X connect 12 0 8 0;
#X connect 13 0 24 0;
#X connect 14 0 12 0;
#X connect 15 0 40 0;
#X connect 16 0 33 0;
#X connect 17 0 19 0;
#X connect 18 0 22 0;
#X connect 20 0 0 1;
#X connect 21 0 8 1;
#X connect 22 0 17 0;
#X connect 26 0 49 0;
#X connect 27 0 30 0;
#X connect 29 0 28 0;
#X connect 31 0 18 0;
#X connect 32 0 18 0;
#X connect 33 0 36 0;
#X connect 34 0 18 0;
#X connect 35 0 18 0;
#X connect 36 0 38 0;
#X connect 38 0 37 0;
#X connect 39 0 45 0;
#X connect 39 0 46 0;
#X connect 39 0 47 0;
#X connect 39 0 48 0;
#X connect 40 0 9 0;
#X connect 41 0 1 0;
#X connect 45 0 31 0;
#X connect 46 0 32 0;
#X connect 47 0 34 0;
#X connect 48 0 35 0;
#X connect 49 0 29 0;
#X restore 388 231 pd sequences;
#X obj 241 307 r barrelF;
#X obj 519 464 s t;
#X msg 94 129 50;
#X obj 303 145 bng 8 250 50 0 empty empty empty 17 7 0 10 -262144 -1
-1;
#X obj 365 213 bng 8 250 50 0 empty empty empty 17 7 0 10 -262144 -1
-1;
#X obj 330 215 bng 8 250 50 0 empty empty empty 17 7 0 10 -262144 -1
-1;
#X obj 369 181 bng 8 250 50 0 empty empty empty 17 7 0 10 -262144 -1
-1;
#X msg 194 212 \$1 2;
#X obj 510 330 metro;
#X obj 537 299 /;
#X obj 537 235 t b f;
#X msg 537 266 3750;
#X obj 537 171 r start;
#X text 504 205 bpm;
#X floatatom 582 207 5 0 0 0 - - -, f 5;
#X msg 537 206 30;
#X text 358 110 out now:;
#X obj 421 109 clap~;
#X obj 421 57 bng 42 250 50 0 empty empty empty 17 7 0 10 -262144 -1
-1;
#X obj 421 136 throw~ sound;
#X msg 715 61 240;
#X msg 819 58 0.7;
#X msg 933 56 0.27;
#X msg 983 54 0.66;
#X obj 296 136 bng 8 250 50 0 empty empty empty 17 7 0 10 -262144 -1
-1;
#X obj 358 204 bng 8 250 50 0 empty empty empty 17 7 0 10 -262144 -1
-1;
#X obj 323 206 bng 8 250 50 0 empty empty empty 17 7 0 10 -262144 -1
-1;
#X obj 362 172 bng 8 250 50 0 empty empty empty 17 7 0 10 -262144 -1
-1;
#X obj 288 126 bng 8 250 50 0 empty empty empty 17 7 0 10 -262144 -1
-1;
#X obj 350 194 bng 8 250 50 0 empty empty empty 17 7 0 10 -262144 -1
-1;
#X obj 315 196 bng 8 250 50 0 empty empty empty 17 7 0 10 -262144 -1
-1;
#X obj 354 162 bng 8 250 50 0 empty empty empty 17 7 0 10 -262144 -1
-1;
#X obj 194 70 i;
#X obj 19 11 declare -path tracking;
#X obj 19 31 declare -path utils;
#X connect 1 0 76 0;
#X connect 2 0 19 0;
#X connect 2 0 23 0;
#X connect 2 0 77 0;
#X connect 3 0 4 1;
#X connect 4 0 0 0;
#X connect 4 0 0 1;
#X connect 5 0 22 1;
#X connect 5 0 52 0;
#X connect 7 0 9 1;
#X connect 8 0 6 0;
#X connect 8 0 65 0;
#X connect 9 0 7 0;
#X connect 9 0 8 0;
#X connect 9 0 70 0;
#X connect 10 0 101 0;
#X connect 13 0 14 0;
#X connect 14 0 1 0;
#X connect 15 0 16 0;
#X connect 16 0 12 0;
#X connect 18 0 3 0;
#X connect 20 0 71 0;
#X connect 20 0 64 0;
#X connect 21 0 22 0;
#X connect 22 0 49 0;
#X connect 24 0 25 0;
#X connect 24 0 56 0;
#X connect 25 0 26 0;
#X connect 25 1 26 1;
#X connect 26 0 27 0;
#X connect 27 0 31 0;
#X connect 28 0 32 0;
#X connect 29 0 30 0;
#X connect 30 0 28 0;
#X connect 31 0 28 1;
#X connect 32 0 37 1;
#X connect 33 0 36 0;
#X connect 34 0 35 0;
#X connect 35 0 33 0;
#X connect 36 0 38 1;
#X connect 37 0 38 0;
#X connect 38 0 66 0;
#X connect 39 0 58 0;
#X connect 40 0 41 0;
#X connect 40 0 57 0;
#X connect 41 0 42 0;
#X connect 41 1 42 1;
#X connect 42 0 43 0;
#X connect 43 0 45 0;
#X connect 44 0 54 0;
#X connect 44 0 61 0;
#X connect 45 0 33 1;
#X connect 46 0 55 0;
#X connect 46 0 62 0;
#X connect 49 0 39 0;
#X connect 50 0 49 1;
#X connect 50 0 53 0;
#X connect 59 0 37 0;
#X connect 60 0 89 0;
#X connect 60 0 90 0;
#X connect 60 0 91 0;
#X connect 60 0 92 0;
#X connect 61 0 29 0;
#X connect 62 0 34 0;
#X connect 63 0 4 0;
#X connect 63 0 12 0;
#X connect 64 0 50 0;
#X connect 67 0 18 0;
#X connect 69 0 50 0;
#X connect 71 0 5 0;
#X connect 72 0 73 0;
#X connect 73 0 74 0;
#X connect 73 0 75 0;
#X connect 76 0 21 0;
#X connect 77 0 9 0;
#X connect 78 0 77 1;
#X connect 79 0 80 0;
#X connect 79 1 78 1;
#X connect 80 0 78 0;
#X connect 81 0 84 0;
#X connect 83 0 79 0;
#X connect 84 0 79 0;
#X connect 84 0 83 0;
#X connect 86 0 88 0;
#X connect 87 0 86 0;
#X connect 89 0 44 0;
#X connect 90 0 46 0;
#X connect 91 0 24 0;
#X connect 92 0 40 0;
#X connect 93 0 94 0;
#X connect 94 0 95 0;
#X connect 94 0 96 0;
#X connect 97 0 98 0;
#X connect 98 0 99 0;
#X connect 98 0 100 0;
#X connect 101 0 13 0;
