#N canvas 374 305 1193 647 10;
#X obj 191 524 dac~;
#X obj 194 169 sin 2;
#X obj 327 65 tgl 15 0 empty empty empty 17 7 0 10 -262144 -1 -1 1
1;
#X obj 53 270 vsl 15 128 0 10 0 0 empty empty empty 0 -9 0 10 -262144
-1 -1 1270 1;
#X obj 194 496 *~;
#X obj 94 108 vsl 15 128 0 1000 0 0 empty empty empty 0 -9 0 10 -262144
-1 -1 254 1;
#X obj 330 185 hsl 128 15 0 15 0 0 empty empty empty -2 -8 0 10 -262144
-1 -1 7620 1;
#X obj 545 185 + 1;
#X obj 469 185 % 16;
#X obj 510 185 i;
#X obj 510 80 metro 20;
#X obj 327 228 s beat;
#X obj 194 70 t i;
#X obj 194 40 r beat;
#N canvas 0 50 450 278 (subpatch) 0;
#X array osc 800 float 2;
#X coords 0 1 800 -1 200 140 1 0 0;
#X restore 329 265 graph;
#X obj 240 487 tabwrite~ osc;
#X obj 194 104 - 8;
#X obj 194 138 / 15;
#X obj 240 430 r beat;
#X obj 240 458 t b;
#X text 324 39 Button which starts the thing;
#X msg 53 176 1;
#X obj 357 90 s start;
#X obj 53 41 r start;
#X obj 194 232 line~;
#X obj 194 299 *~;
#X msg 194 212 \$1 10;
#X msg 327 110 \; pd dsp 1;
#X obj 935 107 vsl 15 128 0.01 1 0 1 empty empty empty 0 -9 0 10 -262144
-1 -1 7569 1;
#X obj 935 286 swap 1;
#X obj 935 308 /;
#X floatatom 935 330 5 0 0 0 - - -, f 5;
#X obj 715 397 *~;
#X obj 714 324 +~ 1;
#X obj 714 346 /~ 2;
#X obj 194 461 r~ tap;
#X obj 626 525 s~ tap;
#X obj 731 376 - 1;
#X obj 715 419 +~ 1;
#X obj 827 399 *~;
#X obj 826 326 +~ 1;
#X obj 826 348 /~ 2;
#X obj 827 421 +~ 1;
#X obj 627 464 fold~, f 15;
#X obj 627 489 fold~, f 34;
#X obj 195 364 osc~ 100;
#X obj 981 106 vsl 15 128 0.01 1 0 1 empty empty empty 0 -9 0 10 -262144
-1 -1 8852 1;
#X obj 981 285 swap 1;
#X obj 981 307 /;
#X floatatom 981 329 5 0 0 0 - - -, f 5;
#X obj 714 102 vsl 15 128 0.01 300 1 1 empty empty empty 0 -9 0 10
-262144 -1 -1 5673 1;
#X obj 843 378 - 1;
#X obj 825 98 vsl 15 128 0.01 300 1 1 empty empty empty 0 -9 0 10 -262144
-1 -1 4544 1;
#X text 722 282 intensity-wobblers;
#X text 1008 198 intensity;
#X obj 194 324 +~;
#X obj 114 119 vsl 15 128 0 1000 0 0 empty empty empty 0 -9 0 10 -262144
-1 -1 889 1;
#X text 742 474 origami;
#X floatatom 94 254 5 0 0 0 - - -, f 5;
#X floatatom 114 275 5 0 0 0 - - -, f 5;
#X msg 94 69 20;
#X msg 114 94 70;
#X floatatom 714 238 5 0 0 0 - - -, f 5;
#X floatatom 825 234 5 0 0 0 - - -, f 5;
#X floatatom 935 243 5 0 0 0 - - -, f 5;
#X floatatom 981 242 5 0 0 0 - - -, f 5;
#X obj 194 387 s~ barrel;
#X obj 627 432 r~ barrel;
#X obj 876 28 r start;
#X msg 715 61 1;
#X obj 715 301 osc~ 1;
#X obj 825 303 osc~ 1;
#X msg 983 54 0.7;
#X msg 933 56 0.6;
#X msg 819 58 0.4;
#X connect 1 0 26 0;
#X connect 2 0 10 0;
#X connect 2 0 22 0;
#X connect 2 0 27 0;
#X connect 3 0 4 1;
#X connect 4 0 0 0;
#X connect 4 0 0 1;
#X connect 5 0 25 1;
#X connect 5 0 58 0;
#X connect 6 0 11 0;
#X connect 7 0 9 1;
#X connect 8 0 6 0;
#X connect 9 0 7 0;
#X connect 9 0 8 0;
#X connect 10 0 9 0;
#X connect 12 0 16 0;
#X connect 13 0 12 0;
#X connect 16 0 17 0;
#X connect 17 0 1 0;
#X connect 18 0 19 0;
#X connect 19 0 15 0;
#X connect 21 0 3 0;
#X connect 23 0 60 0;
#X connect 23 0 21 0;
#X connect 23 0 61 0;
#X connect 24 0 25 0;
#X connect 25 0 55 0;
#X connect 26 0 24 0;
#X connect 28 0 29 0;
#X connect 28 0 64 0;
#X connect 29 0 30 0;
#X connect 29 1 30 1;
#X connect 30 0 31 0;
#X connect 31 0 37 0;
#X connect 32 0 38 0;
#X connect 33 0 34 0;
#X connect 34 0 32 0;
#X connect 35 0 4 0;
#X connect 35 0 15 0;
#X connect 37 0 32 1;
#X connect 38 0 43 1;
#X connect 39 0 42 0;
#X connect 40 0 41 0;
#X connect 41 0 39 0;
#X connect 42 0 44 1;
#X connect 43 0 44 0;
#X connect 44 0 36 0;
#X connect 45 0 66 0;
#X connect 46 0 47 0;
#X connect 46 0 65 0;
#X connect 47 0 48 0;
#X connect 47 1 48 1;
#X connect 48 0 49 0;
#X connect 49 0 51 0;
#X connect 50 0 62 0;
#X connect 50 0 70 0;
#X connect 51 0 39 1;
#X connect 52 0 63 0;
#X connect 52 0 71 0;
#X connect 55 0 45 0;
#X connect 56 0 55 1;
#X connect 56 0 59 0;
#X connect 60 0 5 0;
#X connect 61 0 56 0;
#X connect 67 0 43 0;
#X connect 68 0 69 0;
#X connect 68 0 74 0;
#X connect 68 0 73 0;
#X connect 68 0 72 0;
#X connect 69 0 50 0;
#X connect 70 0 33 0;
#X connect 71 0 40 0;
#X connect 72 0 46 0;
#X connect 73 0 28 0;
#X connect 74 0 52 0;
