#N canvas 16 105 1397 1033 10;
#X obj 738 891 dac~;
#X obj 194 169 sin 2;
#X obj 327 65 tgl 15 0 empty empty empty 17 7 0 10 -262144 -1 -1 1
1;
#X obj 616 727 vsl 15 128 0 10 0 0 empty empty empty 0 -9 0 10 -262144
-1 -1 2470 1;
#X obj 738 858 *~;
#X obj 94 168 vsl 15 128 0 1000 0 0 empty empty empty 0 -9 0 10 -262144
-1 -1 3935 1;
#X obj 330 185 hsl 128 15 0 15 0 0 empty empty empty -2 -8 0 10 -262144
-1 -1 2540 1;
#X obj 545 185 + 1;
#X obj 469 185 % 16;
#X obj 510 185 i;
#X obj 194 70 t i;
#X obj 194 40 r beat;
#N canvas 0 50 450 278 (subpatch) 0;
#X array osc 800 float 2;
#X coords 0 1 800 -1 200 140 1 0 0;
#X restore 892 627 graph;
#X obj 803 849 tabwrite~ osc;
#X obj 194 104 - 8;
#X obj 194 138 / 15;
#X obj 803 792 r beat;
#X obj 803 820 t b;
#X text 324 39 Button which starts the thing;
#X msg 616 695 1;
#X obj 357 90 s start;
#X obj 94 87 r start;
#X obj 194 232 line~;
#X obj 194 299 *~;
#X msg 194 212 \$1 10;
#X msg 327 110 \; pd dsp 1;
#X obj 935 107 vsl 15 128 0.01 1 0 1 empty empty empty 0 -9 0 10 -262144
-1 -1 7569 1;
#X obj 935 286 swap 1;
#X obj 935 308 /;
#X floatatom 935 330 5 0 0 0 - - -;
#X obj 715 397 *~;
#X obj 714 324 +~ 1;
#X obj 714 346 /~ 2;
#X obj 731 376 - 1;
#X obj 715 419 +~ 1;
#X obj 827 399 *~;
#X obj 826 326 +~ 1;
#X obj 826 348 /~ 2;
#X obj 827 421 +~ 1;
#X obj 688 494 fold~;
#X obj 687 519 fold~;
#X obj 195 364 osc~ 100;
#X obj 981 106 vsl 15 128 0.01 1 0 1 empty empty empty 0 -9 0 10 -262144
-1 -1 8852 1;
#X obj 981 285 swap 1;
#X obj 981 307 /;
#X floatatom 981 329 5 0 0 0 - - -;
#X obj 714 102 vsl 15 128 0.01 300 1 1 empty empty empty 0 -9 0 10
-262144 -1 -1 5673 1;
#X obj 843 378 - 1;
#X obj 825 98 vsl 15 128 0.01 300 1 1 empty empty empty 0 -9 0 10 -262144
-1 -1 4544 1;
#X text 722 282 intensity-wobblers;
#X text 1008 198 intensity;
#X obj 194 324 +~;
#X obj 144 192 vsl 15 128 0 1000 0 0 empty empty empty 0 -9 0 10 -262144
-1 -1 8050 1;
#X text 742 474 origami;
#X floatatom 94 314 5 0 0 0 - - -;
#X floatatom 144 342 5 0 0 0 - - -;
#X floatatom 714 238 5 0 0 0 - - -;
#X floatatom 825 234 5 0 0 0 - - -;
#X floatatom 935 243 5 0 0 0 - - -;
#X floatatom 981 242 5 0 0 0 - - -;
#X obj 194 387 s~ barrel;
#X obj 688 462 r~ barrel;
#X obj 876 28 r start;
#X msg 715 61 1;
#X obj 715 301 osc~ 1;
#X obj 825 303 osc~ 1;
#X msg 983 54 0.7;
#X msg 933 56 0.6;
#X msg 819 58 0.4;
#X obj 738 777 catch~ sound;
#X msg 144 166 500;
#X obj 469 214 s beat;
#X obj 687 571 s~ tap;
#X obj 510 80 metro 20;
#X obj 616 640 r start;
#N canvas 1012 248 606 690 sequences 0;
#X obj 136 142 attack~;
#X obj 175 123 bng 15 250 50 0 empty empty empty 17 7 0 10 -262144
-1 -1;
#X obj 136 183 throw~ sound;
#X obj 155 25 r start;
#X obj 55 27 r~ barrel;
#X obj 55 57 clip~ -0.5 0.5;
#X obj 200 59 r beat;
#X obj 175 91 sequencer;
#X obj 458 38 r start;
#X obj 130 342 attack~;
#X obj 169 323 bng 15 250 50 0 empty empty empty 17 7 0 10 -262144
-1 -1;
#X obj 130 383 throw~ sound;
#X obj 149 225 r start;
#X obj 49 257 clip~ -0.5 0.5;
#X obj 452 238 r start;
#X obj 49 227 r~ tap;
#X obj 169 291 sequencer;
#X obj 189 257 r beat;
#X msg 452 274 4;
#X obj 164 511 bng 15 250 50 0 empty empty empty 17 7 0 10 -262144
-1 -1;
#X obj 164 479 sequencer;
#X obj 447 426 r start;
#X obj 164 623 line;
#X obj 164 536 random 900;
#X obj 164 564 + 100;
#X obj 164 651 s barrelF;
#X msg 164 596 \$1 100;
#X obj 165 405 r t;
#X obj 165 433 / 16;
#X obj 165 457 % 15;
#X msg 447 462 8 15;
#X msg 458 74 0 8;
#X msg 155 57 200;
#X msg 149 257 20;
#X connect 0 0 2 0;
#X connect 1 0 0 2;
#X connect 3 0 32 0;
#X connect 4 0 5 0;
#X connect 5 0 0 0;
#X connect 6 0 7 0;
#X connect 7 0 1 0;
#X connect 8 0 31 0;
#X connect 9 0 11 0;
#X connect 10 0 9 2;
#X connect 12 0 33 0;
#X connect 13 0 9 0;
#X connect 14 0 18 0;
#X connect 15 0 13 0;
#X connect 16 0 10 0;
#X connect 17 0 16 0;
#X connect 18 0 16 1;
#X connect 19 0 23 0;
#X connect 20 0 19 0;
#X connect 21 0 30 0;
#X connect 22 0 25 0;
#X connect 23 0 24 0;
#X connect 24 0 26 0;
#X connect 26 0 22 0;
#X connect 27 0 28 0;
#X connect 28 0 29 0;
#X connect 29 0 20 0;
#X connect 30 0 20 1;
#X connect 31 0 7 1;
#X connect 32 0 0 1;
#X connect 33 0 9 1;
#X restore 434 311 pd sequences;
#X obj 241 307 r barrelF;
#X obj 519 214 s t;
#X msg 94 129 50;
#X obj 370 248 bng 15 250 50 0 empty empty empty 17 7 0 10 -262144
-1 -1;
#X obj 411 293 bng 15 250 50 0 empty empty empty 17 7 0 10 -262144
-1 -1;
#X obj 376 295 bng 15 250 50 0 empty empty empty 17 7 0 10 -262144
-1 -1;
#X obj 415 261 bng 15 250 50 0 empty empty empty 17 7 0 10 -262144
-1 -1;
#X connect 1 0 24 0;
#X connect 2 0 20 0;
#X connect 2 0 25 0;
#X connect 2 0 73 0;
#X connect 3 0 4 1;
#X connect 4 0 0 0;
#X connect 4 0 0 1;
#X connect 5 0 23 1;
#X connect 5 0 54 0;
#X connect 7 0 9 1;
#X connect 8 0 6 0;
#X connect 8 0 71 0;
#X connect 9 0 7 0;
#X connect 9 0 8 0;
#X connect 9 0 77 0;
#X connect 10 0 14 0;
#X connect 11 0 10 0;
#X connect 14 0 15 0;
#X connect 15 0 1 0;
#X connect 16 0 17 0;
#X connect 17 0 13 0;
#X connect 19 0 3 0;
#X connect 21 0 78 0;
#X connect 21 0 70 0;
#X connect 22 0 23 0;
#X connect 23 0 51 0;
#X connect 24 0 22 0;
#X connect 26 0 27 0;
#X connect 26 0 58 0;
#X connect 27 0 28 0;
#X connect 27 1 28 1;
#X connect 28 0 29 0;
#X connect 29 0 33 0;
#X connect 30 0 34 0;
#X connect 31 0 32 0;
#X connect 32 0 30 0;
#X connect 33 0 30 1;
#X connect 34 0 39 1;
#X connect 35 0 38 0;
#X connect 36 0 37 0;
#X connect 37 0 35 0;
#X connect 38 0 40 1;
#X connect 39 0 40 0;
#X connect 40 0 72 0;
#X connect 41 0 60 0;
#X connect 42 0 43 0;
#X connect 42 0 59 0;
#X connect 43 0 44 0;
#X connect 43 1 44 1;
#X connect 44 0 45 0;
#X connect 45 0 47 0;
#X connect 46 0 56 0;
#X connect 46 0 64 0;
#X connect 47 0 35 1;
#X connect 48 0 57 0;
#X connect 48 0 65 0;
#X connect 51 0 41 0;
#X connect 52 0 51 1;
#X connect 52 0 55 0;
#X connect 61 0 39 0;
#X connect 62 0 63 0;
#X connect 62 0 68 0;
#X connect 62 0 67 0;
#X connect 62 0 66 0;
#X connect 63 0 46 0;
#X connect 64 0 31 0;
#X connect 65 0 36 0;
#X connect 66 0 42 0;
#X connect 67 0 26 0;
#X connect 68 0 48 0;
#X connect 69 0 4 0;
#X connect 69 0 13 0;
#X connect 70 0 52 0;
#X connect 73 0 9 0;
#X connect 74 0 19 0;
#X connect 76 0 51 1;
#X connect 78 0 5 0;
#X connect 79 0 80 0;
#X connect 80 0 81 0;
#X connect 80 0 82 0;
