#N canvas 18 161 789 828 10;
#X obj 222 153 hsl 128 15 0 1 0 1 empty empty balance_&_filter 16 -6
0 10 -262144 -1 -1 5500 1;
#X obj 202 21 vsl 15 128 0 1 0 1 empty empty detune 20 60 0 10 -262144
-1 -1 2300 1;
#X obj 396 545 phasor~ 200;
#X obj 270 571 *~;
#X obj 384 367 -;
#X obj 380 343 swap 1;
#X obj 396 574 *~;
#X msg 384 389 \$1 12;
#X obj 384 411 line~;
#X msg 459 385 \$1 12;
#X obj 459 407 line~;
#X obj 453 294 t a;
#X obj 329 616 +~;
#X obj 328 717 outlet~;
#X obj 269 548 phasor~ 200;
#X obj 329 674 lop~;
#X obj 562 542 t a;
#X obj 562 586 + 100;
#X obj 562 564 * 3200;
#X obj 152 188 r~ \$0-freq;
#X obj 217 332 *~ 0.125;
#X obj 217 357 *~;
#X obj 204 398 -~;
#X obj 153 401 +~;
#X obj 151 240 *~ 1;
#X text 59 14 freq;
#X obj 21 14 inlet~;
#X obj 21 36 s~ \$0-freq;
#X connect 0 0 11 0;
#X connect 0 0 16 0;
#X connect 1 0 21 1;
#X connect 2 0 6 0;
#X connect 3 0 12 0;
#X connect 4 0 7 0;
#X connect 5 0 4 0;
#X connect 5 1 4 1;
#X connect 6 0 12 1;
#X connect 7 0 8 0;
#X connect 8 0 3 1;
#X connect 9 0 10 0;
#X connect 10 0 6 1;
#X connect 11 0 5 0;
#X connect 11 0 9 0;
#X connect 12 0 15 0;
#X connect 14 0 3 0;
#X connect 15 0 13 0;
#X connect 16 0 18 0;
#X connect 17 0 15 1;
#X connect 18 0 17 0;
#X connect 19 0 24 0;
#X connect 20 0 21 0;
#X connect 21 0 22 1;
#X connect 21 0 23 1;
#X connect 22 0 2 0;
#X connect 23 0 14 0;
#X connect 24 0 20 0;
#X connect 24 0 22 0;
#X connect 24 0 23 0;
#X connect 26 0 27 0;
#X coords 0 -1 1 1 160 160 1 200 10;
