#N canvas 0 87 450 368 10;
#X obj 32 37 r track-\$1-clip-control;
#X obj 82 320 s track-\$1-clip-data;
#X obj 89 107 t b b b;
#X msg 128 137 1;
#X msg 89 207 0;
#X msg 108 162 bang;
#X obj 82 274 spigot 0;
#X obj 108 184 outlet;
#X obj 82 241 inlet;
#X obj 32 59 route load;
#X obj 89 82 select save clear, f 24;
#X obj 32 82 route \$2;
#X obj 82 296 list prepend \$2;
#X obj 32 104 outlet;
#X obj 159 106 outlet;
#X text 32 11 \$1: track # \, \$2: unique name (of containing patch)
;
#X connect 0 0 9 0;
#X connect 2 0 4 0;
#X connect 2 1 5 0;
#X connect 2 2 3 0;
#X connect 3 0 6 1;
#X connect 4 0 6 1;
#X connect 5 0 7 0;
#X connect 6 0 12 0;
#X connect 8 0 6 0;
#X connect 9 0 11 0;
#X connect 9 1 10 0;
#X connect 10 0 2 0;
#X connect 10 1 14 0;
#X connect 11 0 13 0;
#X connect 12 0 1 0;
