#N canvas 16 118 197 317 10;
#X obj 35 21 r save-song;
#X obj 29 270 s song-writer;
#X obj 35 44 t b b b;
#X msg 74 83 1;
#X msg 35 154 0;
#X msg 54 109 bang;
#X obj 29 221 spigot 0;
#X obj 54 131 outlet;
#X obj 29 188 inlet;
#X obj 29 247 list prepend \$1;
#X connect 0 0 2 0;
#X connect 2 0 4 0;
#X connect 2 1 5 0;
#X connect 2 2 3 0;
#X connect 3 0 6 1;
#X connect 4 0 6 1;
#X connect 5 0 7 0;
#X connect 6 0 9 0;
#X connect 8 0 6 0;
#X connect 9 0 1 0;
