#N canvas 177 361 949 498 10;
#X obj 10 27 vradio 14 1 1 17 \$0-ui-clip-index \$0-ui-clip-index-rcv
empty 0 -8 0 10 -262144 -1 -1 0;
#X text 399 61 loading: 1) bang contents of TF 1 \, route all belonging
to current clip into track-#-clip-control (prepend with `load).;
#X obj 24 27 nbx 2 14 0 16 0 1 \$0-ui-bar-alignment \$0-ui-bar-alignment-rcv
align 31 7 0 10 -262144 -1 -1 0 256;
#X text 399 120 saving: 1) bang contents of TF 1 \, route all belonging
to current clip into void \, save in TF 2 2) send `save message. 3)
save all data from track-#-clip-data into TF 2 as well. 4) clear TF
1 \, transmit all data from TF 2 into TF 1 \, then clear TF 2;
#X text 401 196 clear: 1) bang contents of TF1 \, route all belonging
to current clip into void \, save in TF 2 2) send `clear message. 3)
save all data from track-#-clip-data into TF 2 as well. 4) clear TF
1 \, transmit all data from TF 2 into TF 1 \, then clear TF 2;
#X text 777 188 > these two are almost identical;
#X text 533 373 when switching over to new clip: 1) save current clip
2) send clear 3) load new clip (might be empty) (thats okay because
we cleared);
#X text 401 278 clear workaround: use save workflow \, but send `clear
instead of `save (which will clear all patterns but not send anything
into over track-#-clip-data). that way TF1 won't get clogged with boring
`clear-data. it works because we `clear before every `load anyway.
;
#X text 403 445 FIXME: BUG when changing settings but never changing
the current clip \, the changes are never saved.;
#X text 397 17 THOUGHTS;
#X obj 13 285 bng 8 250 50 0 \$0-ui-clear-clip \$0-void-rcv x 11 2
0 10 -262144 -1 -1;
#X symbolatom 24 41 10 0 0 0 - #0-ui-symbol-1-rcv #0-ui-symbol-1,
f 10;
#X symbolatom 24 55 10 0 0 0 - #0-ui-symbol-2-rcv #0-ui-symbol-2,
f 10;
#X symbolatom 24 69 10 0 0 0 - #0-ui-symbol-3-rcv #0-ui-symbol-3,
f 10;
#X symbolatom 24 83 10 0 0 0 - #0-ui-symbol-4-rcv #0-ui-symbol-4,
f 10;
#X symbolatom 24 97 10 0 0 0 - #0-ui-symbol-5-rcv #0-ui-symbol-5,
f 10;
#X symbolatom 24 111 10 0 0 0 - #0-ui-symbol-6-rcv #0-ui-symbol-6,
f 10;
#X symbolatom 24 125 10 0 0 0 - #0-ui-symbol-7-rcv #0-ui-symbol-7,
f 10;
#X symbolatom 24 139 10 0 0 0 - #0-ui-symbol-8-rcv #0-ui-symbol-8,
f 10;
#X symbolatom 24 153 10 0 0 0 - #0-ui-symbol-9-rcv #0-ui-symbol-9,
f 10;
#X symbolatom 24 167 10 0 0 0 - #0-ui-symbol-10-rcv #0-ui-symbol-10
, f 10;
#X symbolatom 24 181 10 0 0 0 - #0-ui-symbol-11-rcv #0-ui-symbol-11
, f 10;
#X symbolatom 24 195 10 0 0 0 - #0-ui-symbol-12-rcv #0-ui-symbol-12
, f 10;
#X symbolatom 24 209 10 0 0 0 - #0-ui-symbol-13-rcv #0-ui-symbol-13
, f 10;
#X symbolatom 24 223 10 0 0 0 - #0-ui-symbol-14-rcv #0-ui-symbol-14
, f 10;
#X symbolatom 24 237 10 0 0 0 - #0-ui-symbol-15-rcv #0-ui-symbol-15
, f 10;
#X symbolatom 24 251 10 0 0 0 - #0-ui-symbol-16-rcv #0-ui-symbol-16
, f 10;
#X obj 10 265 tgl 14 1 \$0-ui-copy \$0-ui-copy-rcv copy-mode 17 7 0
10 -262144 -1 -1 1 1;
#X obj 74 285 bng 8 250 50 0 \$0-ui-clear-track \$0-void-rcv xxx -20
2 0 10 -262144 -1 -1;
#X obj 147 354 bng 15 250 50 0 empty empty empty 17 7 0 10 -262144
-1 -1;
#X obj 147 375 s \$0-print-tf1;
#N canvas 0 87 423 239 clip-data-storage 0;
#X obj 26 204 s \$0-tf1-out;
#X obj 119 202 s \$0-tf1-done;
#X obj 26 154 r \$0-tf1-in;
#X obj 214 152 r \$0-tf2-in;
#X obj 214 202 s \$0-tf2-out;
#X obj 307 201 s \$0-tf2-done;
#X text 95 30 clip data storage;
#X obj 26 179 textfile tf1, f 16;
#X obj 214 178 textfile tf2, f 16;
#X msg 129 129 clear;
#X msg 103 103 print;
#X msg 153 102 print;
#X obj 103 55 r \$0-print-tf1;
#X obj 103 79 b;
#X connect 2 0 7 0;
#X connect 3 0 8 0;
#X connect 7 0 0 0;
#X connect 7 1 1 0;
#X connect 8 0 4 0;
#X connect 8 1 5 0;
#X connect 9 0 7 0;
#X connect 9 0 8 0;
#X connect 10 0 7 0;
#X connect 11 0 8 0;
#X connect 12 0 13 0;
#X connect 13 0 10 0;
#X restore 106 211 pd clip-data-storage;
#N canvas 0 87 484 275 transfer-TF2-TF1 0;
#X obj 39 76 t a b;
#X msg 79 76 clear;
#X obj 39 233 t a b;
#X msg 79 233 clear;
#X obj 121 233 s \$0-tf2-in;
#X obj 297 112 for-each, f 11;
#X msg 297 133 add2 \$1;
#X msg 350 134 add;
#X obj 297 90 spigot 0;
#X obj 297 156 s \$0-tf1-in;
#X obj 342 66 r \$0-transfer-spigot;
#X obj 39 101 t a b;
#X msg 80 102 1;
#X obj 80 124 s \$0-transfer-spigot;
#X obj 39 183 t a b;
#X obj 80 206 s \$0-transfer-spigot;
#X msg 80 184 0;
#X obj 297 46 r \$0-tf2-out;
#X obj 39 152 t a b;
#X obj 81 152 s \$0-read-tf2;
#X text 44 14 transfer TF2 over to TF1;
#X obj 39 47 r \$0-transfer-TF2-TF1;
#X obj 121 76 s \$0-tf1-in;
#X connect 0 0 11 0;
#X connect 0 1 1 0;
#X connect 1 0 22 0;
#X connect 2 1 3 0;
#X connect 3 0 4 0;
#X connect 5 0 6 0;
#X connect 5 1 7 0;
#X connect 6 0 9 0;
#X connect 7 0 9 0;
#X connect 8 0 5 0;
#X connect 10 0 8 1;
#X connect 11 0 18 0;
#X connect 11 1 12 0;
#X connect 12 0 13 0;
#X connect 14 0 2 0;
#X connect 14 1 16 0;
#X connect 16 0 15 0;
#X connect 17 0 8 0;
#X connect 18 0 14 0;
#X connect 18 1 19 0;
#X connect 21 0 0 0;
#X restore 106 268 pd transfer-TF2-TF1;
#N canvas 0 102 305 866 save-clip 0;
#X msg 186 403 symbol save;
#X floatatom 32 234 5 0 0 0 - - -, f 5;
#X obj 30 680 route, f 6;
#X obj 30 637 spigot 0;
#X obj 30 586 r \$0-tf1-out;
#X obj 74 413 s \$0-read-tf1;
#X obj 165 769 s \$0-tf2-in;
#X obj 112 723 for-each, f 11;
#X msg 112 745 add2 \$1;
#X msg 165 746 add;
#X obj 73 313 s \$0-tf2-in;
#X msg 73 291 clear;
#X obj 32 290 t a b;
#X obj 32 337 t a b;
#X obj 32 385 t a f;
#X obj 32 413 t a b;
#X msg 73 338 1;
#X obj 73 360 s \$0-save-spigot;
#X obj 157 609 r \$0-save-spigot;
#X obj 74 385 s \$0-save-route;
#X obj 181 656 r \$0-save-route;
#X obj 73 532 s \$0-save-spigot;
#X msg 73 509 0;
#X obj 32 440 t a b;
#X obj 73 487 s track-\$1-clip-control;
#X obj 112 637 spigot 0;
#X obj 112 586 r track-\$1-clip-data;
#X obj 112 681 list prepend;
#X obj 73 465 symbol save, f 20;
#X obj 32 556 s \$0-transfer-TF2-TF1;
#X obj 32 508 t b b;
#X obj 32 136 r \$0-save-clip;
#X obj 32 258 select 0;
#X obj 128 136 r \$0-clear-clip;
#X msg 201 427 symbol clear;
#X obj 32 178 t f b, f 18;
#X obj 128 158 t f b;
#X text 85 50 save (or clear) clip;
#X text 39 78 replace clip # data with whatever comes back from track-#-clip-data
(hint: nothing when sending `clear), f 34;
#X text 91 258 clip 0 is never saved;
#X connect 0 0 28 1;
#X connect 1 0 32 0;
#X connect 2 1 7 0;
#X connect 3 0 2 0;
#X connect 4 0 3 0;
#X connect 7 0 8 0;
#X connect 7 1 9 0;
#X connect 8 0 6 0;
#X connect 9 0 6 0;
#X connect 11 0 10 0;
#X connect 12 0 13 0;
#X connect 12 1 11 0;
#X connect 13 0 14 0;
#X connect 13 1 16 0;
#X connect 14 0 15 0;
#X connect 14 1 19 0;
#X connect 15 0 23 0;
#X connect 15 1 5 0;
#X connect 16 0 17 0;
#X connect 18 0 3 1;
#X connect 18 0 25 1;
#X connect 20 0 2 1;
#X connect 20 0 27 1;
#X connect 22 0 21 0;
#X connect 23 0 30 0;
#X connect 23 1 28 0;
#X connect 25 0 27 0;
#X connect 26 0 25 0;
#X connect 27 0 7 0;
#X connect 28 0 24 0;
#X connect 30 0 29 0;
#X connect 30 1 22 0;
#X connect 31 0 35 0;
#X connect 32 1 12 0;
#X connect 33 0 36 0;
#X connect 34 0 28 1;
#X connect 35 0 1 0;
#X connect 35 1 0 0;
#X connect 36 0 1 0;
#X connect 36 1 34 0;
#X restore 106 144 pd save-clip;
#N canvas 0 82 450 351 load-clip 0;
#X obj 60 220 route, f 21;
#X floatatom 147 93 5 0 0 0 - - -, f 5;
#X text 143 27 load clip #;
#X msg 147 174 0, f 2;
#X msg 204 175 1, f 2;
#X obj 60 197 spigot 0, f 15;
#X obj 147 114 t b b f b, f 10;
#X obj 60 174 r \$0-tf1-out;
#X obj 166 145 s \$0-read-tf1;
#X obj 60 290 s track-\$1-clip-control;
#X obj 147 68 r \$0-load-clip;
#X obj 60 244 list prepend load;
#X obj 125 266 print clip-control;
#X obj 60 266 list trim;
#X text 63 44 send clip data to track-#-clip-control;
#X connect 0 0 11 0;
#X connect 1 0 6 0;
#X connect 3 0 5 1;
#X connect 4 0 5 1;
#X connect 5 0 0 0;
#X connect 6 0 3 0;
#X connect 6 1 8 0;
#X connect 6 2 0 1;
#X connect 6 3 4 0;
#X connect 7 0 5 0;
#X connect 10 0 1 0;
#X connect 11 0 13 0;
#X connect 13 0 9 0;
#X restore 106 163 pd load-clip;
#N canvas 0 82 450 300 clear-titles 0;
#X obj 58 259 s;
#X obj 73 236 makefilename \$0-ui-symbol-%d-rcv;
#X obj 59 55 loadbang;
#X obj 59 147 f;
#X obj 88 147 + 1;
#X obj 59 123 until;
#X obj 59 77 t b b;
#X msg 91 101 0;
#X obj 59 169 t b f;
#X obj 59 213 list tosymbol;
#X obj 38 55 bng 15 250 50 0 empty empty empty 17 7 0 10 -262144 -1
-1;
#X text 71 25 clear clip titles;
#X obj 114 55 r \$0-clear-titles;
#X msg 59 191 95;
#X obj 137 147 r \$0-clear-title;
#X msg 59 101 17;
#X connect 1 0 0 1;
#X connect 2 0 6 0;
#X connect 3 0 4 0;
#X connect 3 0 8 0;
#X connect 4 0 3 1;
#X connect 5 0 3 0;
#X connect 6 0 15 0;
#X connect 6 1 7 0;
#X connect 7 0 3 1;
#X connect 8 0 13 0;
#X connect 8 1 1 0;
#X connect 9 0 0 0;
#X connect 10 0 6 0;
#X connect 12 0 6 0;
#X connect 13 0 9 0;
#X connect 14 0 8 0;
#X connect 15 0 5 0;
#X restore 106 297 pd clear-titles;
#N canvas 0 82 450 300 random-title 0;
#X obj 44 98 s \$0-check-clip-exist;
#X obj 45 120 r \$0-clip-exist;
#X obj 45 162 select 0;
#X obj 45 186 random-word;
#X symbolatom 45 208 10 0 0 0 - - -, f 10;
#X obj 45 254 s;
#X obj 60 231 makefilename \$0-ui-symbol-%d-rcv;
#X text 53 23 random title for new clips;
#X obj 44 49 r \$0-random-title;
#X obj 44 75 t f b f, f 27;
#X obj 45 141 once;
#X connect 1 0 10 0;
#X connect 2 0 3 0;
#X connect 3 0 4 0;
#X connect 4 0 5 0;
#X connect 6 0 5 1;
#X connect 8 0 9 0;
#X connect 9 0 0 0;
#X connect 9 1 10 1;
#X connect 9 2 6 0;
#X connect 10 0 2 0;
#X restore 106 316 pd random-title;
#N canvas 0 82 450 323 check-clip-exist 0;
#X obj 122 232 t a b;
#X msg 173 111 1;
#X msg 140 157 0;
#X obj 40 182 spigot, f 23;
#X obj 40 156 r \$0-tf1-out;
#X obj 156 135 s \$0-read-tf1;
#X obj 121 87 t a b b b f b, f 15;
#X msg 40 226 1;
#X msg 202 224 0;
#X obj 149 259 f;
#X text 69 16 check clip existance;
#X obj 121 62 r \$0-check-clip-exist;
#X obj 149 281 s \$0-clip-exist;
#X text 47 36 (e.g. if entry present in TF1);
#X obj 40 204 route, f 25;
#X connect 0 1 9 0;
#X connect 1 0 3 1;
#X connect 2 0 3 1;
#X connect 3 0 14 0;
#X connect 4 0 3 0;
#X connect 6 0 0 0;
#X connect 6 1 2 0;
#X connect 6 2 5 0;
#X connect 6 3 1 0;
#X connect 6 4 14 1;
#X connect 6 5 8 0;
#X connect 7 0 9 1;
#X connect 8 0 9 1;
#X connect 9 0 12 0;
#X connect 11 0 6 0;
#X connect 14 0 7 0;
#X restore 106 249 pd check-clip-exist;
#N canvas 0 92 450 300 clear-clip 0;
#X text 44 25 clear clip;
#X obj 51 78 r \$0-ui-clip-index;
#X obj 36 103 f;
#X obj 99 146 s \$0-clear-title;
#X obj 67 165 s \$0-clear-clip;
#X obj 36 186 v \$0-clip-cleared;
#X obj 36 125 t b f f, f 11;
#X msg 36 147 1;
#X obj 36 56 r \$0-ui-clear-clip;
#X connect 1 0 2 1;
#X connect 2 0 6 0;
#X connect 6 0 7 0;
#X connect 6 1 4 0;
#X connect 6 2 3 0;
#X connect 7 0 5 0;
#X connect 8 0 2 0;
#X restore 106 182 pd clear-clip;
#N canvas 0 97 811 489 change-clip 0;
#X obj 144 205 r \$0-ui-clip-index;
#X obj 41 250 r \$0-switch-clip;
#X obj 244 264 r \$0-ui-bar-alignment;
#X obj 244 286 select 0;
#X obj 542 401 s \$0-save-clip;
#X obj 542 305 pack s 0, f 9;
#X msg 250 576 symbol save;
#X msg 183 893 symbol load;
#X obj 191 831 s track-\$1-clip-control;
#X msg 191 810 symbol clear;
#X obj 542 353 route save load;
#X obj 585 378 s \$0-load-clip;
#X obj 542 327 list trim;
#X obj 289 308 b;
#X msg 244 308 1;
#X obj 145 250 t b f, f 7;
#X obj 145 375 spigot, f 17;
#X msg 289 332 0;
#X obj 41 374 spigot, f 13;
#X obj 593 280 f 0;
#X msg 94 321 0;
#X msg 116 343 1;
#X text 347 27 clip change;
#X text 249 164 immediate change when bar-alignment is set to 0 \,
bar-synced change otherwise., f 48;
#X obj 172 638 s \$0-random-title;
#X obj 205 532 v \$0-clip-cleared;
#X msg 173 543 0;
#X obj 205 554 select 1;
#X obj 145 614 t a f;
#X obj 250 598 s \$0-change-command;
#X obj 183 914 s \$0-change-command;
#X obj 542 235 r \$0-change-command;
#X obj 203 872 s \$0-change-index;
#X obj 593 257 r \$0-change-index;
#X obj 206 509 s \$0-change-index;
#X obj 145 290 v \$0-next-clip;
#X obj 41 291 v \$0-next-clip;
#X obj 41 332 change;
#X obj 145 409 f 0;
#X obj 195 417 bng 15 250 50 0 empty empty empty 17 7 0 10 -262144
-1 -1;
#X obj 145 488 t a b b, f 9;
#X text 212 488 save current clip;
#X obj 164 851 t a b f;
#X text 202 787 clear;
#X obj 164 787 t a b;
#X obj 164 689 v \$0-copy;
#X obj 145 663 t a b f, f 9;
#X obj 164 711 pack f f;
#X obj 164 733 route 0, f 41;
#X obj 407 756 route 1;
#X text 169 759 copy off: clear \, then load;
#X obj 446 903 s \$0-check-clip-exist;
#X text 418 784 copy on: save in next clip if empty \, otherwise clear
then load, f 36;
#X obj 446 922 r \$0-clip-exist;
#X obj 446 989 select 0;
#X obj 446 1011 f;
#X obj 491 1011 b;
#X obj 491 1033 f;
#X obj 446 1033 t b f;
#X obj 473 1054 s \$0-change-index;
#X obj 446 1098 s \$0-change-command;
#X msg 446 1076 symbol save;
#X text 217 59 changing a clip is the most tricky thing here. the intended
behavior is: when selecting an empty clip \, instantiate new clear
data in its place. when selecting a filled clip \, load the associated
data. the actual saving happens whenever we select away from the current
clip \, e.g. only on 'exit'. this introduces some wonky behavior for
'clearing' and 'copying' \, where the save has to be omitted or triggered
twice.;
#X text 317 530 don't save directly after clear (that would save the
cleared clip \, preventing it from re-initializing w/ a new random
name)., f 44;
#X text 457 831 clip 0 cannot be a copy target.;
#X obj 407 829 moses 1;
#X obj 75 757 print no-copy;
#X obj 456 756 print copy;
#X obj 172 459 print next-clip-index;
#X obj 607 327 print save /load-cmd;
#X obj 145 438 t f f;
#X obj 446 864 t f b f, f 9;
#X obj 446 944 once;
#X text 290 713 copy-mode on or off?;
#X floatatom 159 225 5 0 0 0 - - -, f 5;
#X connect 0 0 15 0;
#X connect 0 0 74 0;
#X connect 1 0 36 0;
#X connect 2 0 3 0;
#X connect 3 0 14 0;
#X connect 3 0 20 0;
#X connect 3 1 13 0;
#X connect 5 0 12 0;
#X connect 6 0 29 0;
#X connect 7 0 30 0;
#X connect 9 0 8 0;
#X connect 10 0 4 0;
#X connect 10 1 11 0;
#X connect 12 0 10 0;
#X connect 13 0 17 0;
#X connect 13 0 21 0;
#X connect 14 0 16 1;
#X connect 15 0 35 0;
#X connect 15 1 35 0;
#X connect 16 0 38 0;
#X connect 17 0 16 1;
#X connect 18 0 38 0;
#X connect 19 0 5 1;
#X connect 20 0 18 1;
#X connect 21 0 18 1;
#X connect 25 0 27 0;
#X connect 26 0 25 0;
#X connect 27 0 26 0;
#X connect 27 1 6 0;
#X connect 28 0 46 0;
#X connect 28 1 24 0;
#X connect 31 0 5 0;
#X connect 33 0 19 0;
#X connect 35 0 16 0;
#X connect 36 0 37 0;
#X connect 37 0 18 0;
#X connect 38 0 39 0;
#X connect 38 0 70 0;
#X connect 40 0 28 0;
#X connect 40 1 25 0;
#X connect 40 2 34 0;
#X connect 42 1 7 0;
#X connect 42 2 32 0;
#X connect 44 0 42 0;
#X connect 44 1 9 0;
#X connect 45 0 47 0;
#X connect 46 1 45 0;
#X connect 46 2 47 1;
#X connect 47 0 48 0;
#X connect 48 0 44 0;
#X connect 48 1 49 0;
#X connect 49 0 65 0;
#X connect 53 0 72 0;
#X connect 54 0 55 0;
#X connect 54 1 56 0;
#X connect 55 0 58 0;
#X connect 56 0 57 0;
#X connect 57 0 44 0;
#X connect 58 0 61 0;
#X connect 58 1 59 0;
#X connect 61 0 60 0;
#X connect 65 0 44 0;
#X connect 65 1 71 0;
#X connect 70 0 40 0;
#X connect 71 0 51 0;
#X connect 71 1 72 1;
#X connect 71 2 57 1;
#X connect 71 2 55 1;
#X connect 72 0 54 0;
#X restore 106 125 pd change-clip;
#N canvas 638 150 594 851 save-track 0;
#X obj 100 741 saving track-\$1;
#X obj 164 404 r \$0-tf1-out;
#X obj 164 426 spigot, f 15;
#X msg 251 404 0;
#X msg 365 365 1;
#X obj 280 395 s \$0-read-tf1;
#X obj 175 250 list prepend titles;
#X obj 142 164 t b b, f 6;
#X text 178 271 note: titles need to be saved _before_ clip data! otherwise
read will fail (titles trigger `clear on TF1 and TF2)., f 49;
#X obj 164 448 list prepend clip-data;
#X obj 238 57 r \$0-ui-symbol-1;
#X obj 248 67 r \$0-ui-symbol-2;
#X obj 258 77 r \$0-ui-symbol-3;
#X obj 268 87 r \$0-ui-symbol-4;
#X obj 278 97 r \$0-ui-symbol-5;
#X obj 288 107 r \$0-ui-symbol-6;
#X obj 298 117 r \$0-ui-symbol-7;
#X obj 308 127 r \$0-ui-symbol-8;
#X obj 318 137 r \$0-ui-symbol-9;
#X obj 328 147 r \$0-ui-symbol-10;
#X obj 338 157 r \$0-ui-symbol-11;
#X obj 348 167 r \$0-ui-symbol-12;
#X obj 358 177 r \$0-ui-symbol-13;
#X obj 368 187 r \$0-ui-symbol-14;
#X obj 378 197 r \$0-ui-symbol-15;
#X obj 388 207 r \$0-ui-symbol-16;
#X obj 175 227 pack s s s s s s s s s s s s s s s s;
#X text 192 14 saving;
#X obj 100 285 t a;
#X obj 100 475 t a;
#X obj 142 556 t b b;
#X obj 100 714 t a;
#X obj 169 669 list prepend misc;
#X obj 215 603 r \$0-ui-copy;
#X obj 188 582 r \$0-ui-bar-alignment;
#X obj 77 779 t a;
#X obj 77 120 t a;
#X obj 169 646 pack f f f, f 16;
#X obj 262 624 r \$0-ui-clip-index;
#X obj 142 343 t b b b b, f 38;
#X text 166 473 note: clip data needs to be saved _before_ misc! because
otherwise on loading \, the clip-index will be set before the clip
data is present \, resulting in a new random name to be generated for
that clip.;
#X connect 0 0 35 0;
#X connect 1 0 2 0;
#X connect 2 0 9 0;
#X connect 3 0 2 1;
#X connect 4 0 2 1;
#X connect 6 0 28 0;
#X connect 7 0 39 0;
#X connect 7 1 26 0;
#X connect 9 0 29 0;
#X connect 10 0 26 0;
#X connect 11 0 26 1;
#X connect 12 0 26 2;
#X connect 13 0 26 3;
#X connect 14 0 26 4;
#X connect 15 0 26 5;
#X connect 16 0 26 6;
#X connect 17 0 26 7;
#X connect 18 0 26 8;
#X connect 19 0 26 9;
#X connect 20 0 26 10;
#X connect 21 0 26 11;
#X connect 22 0 26 12;
#X connect 23 0 26 13;
#X connect 24 0 26 14;
#X connect 25 0 26 15;
#X connect 26 0 6 0;
#X connect 28 0 0 0;
#X connect 29 0 0 0;
#X connect 30 1 37 0;
#X connect 31 0 0 0;
#X connect 32 0 31 0;
#X connect 33 0 37 1;
#X connect 34 0 37 0;
#X connect 35 0 36 0;
#X connect 36 0 7 0;
#X connect 37 0 32 0;
#X connect 38 0 37 2;
#X connect 39 0 30 0;
#X connect 39 1 3 0;
#X connect 39 2 5 0;
#X connect 39 3 4 0;
#X restore 106 58 pd save-track;
#N canvas 677 152 477 675 load-track 0;
#X obj 42 43 loading track-\$1;
#X msg 100 140 clear;
#X obj 100 185 s \$0-tf1-in;
#X obj 113 165 s \$0-tf2-in;
#X obj 62 349 for-each, f 11;
#X msg 62 371 add2 \$1;
#X msg 115 372 add;
#X obj 115 395 s \$0-tf1-in;
#X msg 144 118 0;
#X obj 144 140 s \$0-ui-clip-index-rcv;
#X obj 82 209 unpack s s s s s s s s s s s s s s s s;
#X obj 92 229 s \$0-ui-symbol-1-rcv;
#X obj 102 239 s \$0-ui-symbol-2-rcv;
#X obj 112 249 s \$0-ui-symbol-3-rcv;
#X obj 122 259 s \$0-ui-symbol-4-rcv;
#X obj 132 269 s \$0-ui-symbol-5-rcv;
#X obj 142 279 s \$0-ui-symbol-6-rcv;
#X obj 152 289 s \$0-ui-symbol-7-rcv;
#X obj 162 299 s \$0-ui-symbol-8-rcv;
#X obj 172 309 s \$0-ui-symbol-9-rcv;
#X obj 182 319 s \$0-ui-symbol-10-rcv;
#X obj 192 329 s \$0-ui-symbol-11-rcv;
#X obj 202 339 s \$0-ui-symbol-12-rcv;
#X obj 212 349 s \$0-ui-symbol-13-rcv;
#X obj 222 359 s \$0-ui-symbol-14-rcv;
#X obj 232 369 s \$0-ui-symbol-15-rcv;
#X obj 242 379 s \$0-ui-symbol-16-rcv;
#X text 65 17 loading;
#X obj 82 87 t a b b;
#X obj 42 65 route titles;
#X obj 42 323 route clip-data;
#X obj 42 423 route misc;
#X obj 101 502 s \$0-ui-copy-rcv;
#X obj 64 525 s \$0-ui-bar-alignment-rcv;
#X obj 64 449 unpack f f f;
#X obj 132 478 s \$0-ui-clip-index-rcv;
#X connect 0 0 29 0;
#X connect 0 0 30 0;
#X connect 0 0 31 0;
#X connect 1 0 2 0;
#X connect 1 0 3 0;
#X connect 4 0 5 0;
#X connect 4 1 6 0;
#X connect 5 0 7 0;
#X connect 6 0 7 0;
#X connect 8 0 9 0;
#X connect 10 0 11 0;
#X connect 10 1 12 0;
#X connect 10 2 13 0;
#X connect 10 3 14 0;
#X connect 10 4 15 0;
#X connect 10 5 16 0;
#X connect 10 6 17 0;
#X connect 10 7 18 0;
#X connect 10 8 19 0;
#X connect 10 9 20 0;
#X connect 10 10 21 0;
#X connect 10 11 22 0;
#X connect 10 12 23 0;
#X connect 10 13 24 0;
#X connect 10 14 25 0;
#X connect 10 15 26 0;
#X connect 28 0 10 0;
#X connect 28 1 1 0;
#X connect 28 2 8 0;
#X connect 29 0 28 0;
#X connect 30 0 4 0;
#X connect 31 0 34 0;
#X connect 34 0 33 0;
#X connect 34 1 32 0;
#X connect 34 2 35 0;
#X restore 106 77 pd load-track;
#N canvas 0 87 450 300 clip-data-readers 0;
#X msg 82 111 rewind;
#X obj 25 111 until;
#X obj 25 65 t b b, f 10;
#X obj 25 143 s \$0-tf1-in;
#X obj 52 86 r \$0-tf1-done;
#X text 30 16 read entire TF1;
#X obj 25 42 r \$0-read-tf1;
#X msg 223 114 rewind;
#X obj 166 114 until;
#X obj 166 68 t b b, f 10;
#X obj 166 45 r \$0-read-tf2;
#X obj 193 89 r \$0-tf2-done;
#X text 171 17 read entire TF2;
#X obj 166 146 s \$0-tf2-in;
#X connect 0 0 3 0;
#X connect 1 0 3 0;
#X connect 2 0 1 0;
#X connect 2 1 0 0;
#X connect 4 0 1 1;
#X connect 6 0 2 0;
#X connect 7 0 13 0;
#X connect 8 0 13 0;
#X connect 9 0 8 0;
#X connect 9 1 7 0;
#X connect 10 0 9 0;
#X connect 11 0 8 1;
#X restore 106 230 pd clip-data-readers;
#N canvas 0 87 450 300 clear-track 0;
#X obj 291 101 s \$0-ui-clip-index-rcv;
#X msg 291 80 0;
#X msg 132 84 clear;
#X obj 132 126 s \$0-tf1-in;
#X obj 145 106 s \$0-tf2-in;
#X obj 114 37 bng 15 250 50 0 empty empty empty 17 7 0 10 -262144 -1
-1;
#X obj 18 84 s \$0-clear-titles;
#X text 131 14 clear all;
#X obj 132 58 t b b b, f 27;
#X msg 226 106 1;
#X obj 226 126 v \$0-clip-cleared;
#X obj 132 35 r \$0-ui-clear-track;
#X connect 1 0 0 0;
#X connect 2 0 3 0;
#X connect 2 0 4 0;
#X connect 5 0 8 0;
#X connect 8 0 2 0;
#X connect 8 0 6 0;
#X connect 8 2 1 0;
#X connect 9 0 10 0;
#X connect 11 0 8 0;
#X restore 106 96 pd clear-track;
#N canvas 0 82 450 300 bar-aligment 0;
#X obj 57 38 r current-bar;
#X floatatom 67 103 5 0 0 0 - - -, f 5;
#X obj 35 147 bng 15 250 50 0 empty empty empty 17 7 0 10 -262144 -1
-1;
#X obj 57 81 mod 1;
#X obj 84 59 r \$0-ui-bar-alignment;
#X obj 57 123 select 0;
#X obj 57 145 s \$0-switch-clip;
#X text 62 18 bar alignment mechanic;
#X connect 0 0 3 0;
#X connect 3 0 1 0;
#X connect 3 0 5 0;
#X connect 4 0 3 1;
#X connect 5 0 2 0;
#X connect 5 0 6 0;
#X restore 106 10 pd bar-aligment;
#N canvas 0 110 231 126 copy-mode 0;
#X obj 33 42 r \$0-ui-copy;
#X obj 33 64 v \$0-copy;
#X connect 0 0 1 0;
#X restore 106 29 pd copy-mode;
#X obj 146 408 r track-\$1-clip-index;
#X obj 146 430 s \$0-ui-clip-index-rcv;
#X connect 29 0 30 0;
#X connect 46 0 47 0;
#X coords 0 -1 1 1 76 283 1 10 10;
