#N canvas 0 0 352 700 10;
#X obj 0 0 image;
#X obj 68 621 synth;
#X obj 68 581 notes;
#X obj 131 621 s image-reveal;
#X obj 68 661 dac~;
#X msg 236 621  \; pd dsp 1;
#X obj 236 581 loadbang;
#X connect 1 0 4 0;
#X connect 1 0 4 1;
#X connect 2 0 1 0;
#X connect 2 0 3 0;
#X connect 6 0 5 0;
#X coords 0 1 100 -1 320 576 1 0 0;