#N canvas 0 0 450 300 10;
#X obj 47 125 outlet;
#X obj 5 85 f 0;
#X obj 5 45 b;
#X obj 5 5 inlet;
#X obj 5 125 + 1;
#X connect 1 0 4 0;
#X connect 1 0 0 0;
#X connect 2 0 1 0;
#X connect 3 0 2 0;
#X connect 4 0 1 1;