#N canvas 0 0 320 576 10;
#X msg 5 621  \; cnv-2-0 color -16777160 0 0;
#X obj 5 581 r row-0;
#X obj 80 16 cnv 15 31 31 empty cnv-2-0 empty 20 12 0 14 -262144 -66577 -1;
#X msg 278 621  \; cnv-4-0 color -16777160 0 0;
#X obj 278 581 r row-0;
#X obj 144 16 cnv 15 31 31 empty cnv-4-0 empty 20 12 0 14 -262144 -66577 -1;
#X msg 551 621  \; cnv-6-0 color -16777160 0 0;
#X obj 551 581 r row-0;
#X obj 208 16 cnv 15 31 31 empty cnv-6-0 empty 20 12 0 14 -262144 -66577 -1;
#X msg 824 621  \; cnv-3-1 color -16777160 0 0;
#X obj 824 581 r row-1;
#X obj 112 48 cnv 15 31 31 empty cnv-3-1 empty 20 12 0 14 -262144 -66577 -1;
#X msg 1097 621  \; cnv-4-1 color -16777036 0 0;
#X obj 1097 581 r row-1;
#X obj 144 48 cnv 15 31 31 empty cnv-4-1 empty 20 12 0 14 -262144 -66577 -1;
#X msg 1370 621  \; cnv-5-1 color -16777160 0 0;
#X obj 1370 581 r row-1;
#X obj 176 48 cnv 15 31 31 empty cnv-5-1 empty 20 12 0 14 -262144 -66577 -1;
#X msg 1643 621  \; cnv-2-2 color -16777160 0 0;
#X obj 1643 581 r row-2;
#X obj 80 80 cnv 15 31 31 empty cnv-2-2 empty 20 12 0 14 -262144 -66577 -1;
#X msg 1916 621  \; cnv-3-2 color -16777036 0 0;
#X obj 1916 581 r row-2;
#X obj 112 80 cnv 15 31 31 empty cnv-3-2 empty 20 12 0 14 -262144 -66577 -1;
#X msg 2189 621  \; cnv-4-2 color -16770875 0 0;
#X obj 2189 581 r row-2;
#X obj 144 80 cnv 15 31 31 empty cnv-4-2 empty 20 12 0 14 -262144 -66577 -1;
#X msg 2462 621  \; cnv-5-2 color -16777036 0 0;
#X obj 2462 581 r row-2;
#X obj 176 80 cnv 15 31 31 empty cnv-5-2 empty 20 12 0 14 -262144 -66577 -1;
#X msg 2735 621  \; cnv-6-2 color -16777160 0 0;
#X obj 2735 581 r row-2;
#X obj 208 80 cnv 15 31 31 empty cnv-6-2 empty 20 12 0 14 -262144 -66577 -1;
#X msg 3008 621  \; cnv-3-3 color -16777160 0 0;
#X obj 3008 581 r row-3;
#X obj 112 112 cnv 15 31 31 empty cnv-3-3 empty 20 12 0 14 -262144 -66577 -1;
#X msg 3281 621  \; cnv-4-3 color -16720162 0 0;
#X obj 3281 581 r row-3;
#X obj 144 112 cnv 15 31 31 empty cnv-4-3 empty 20 12 0 14 -262144 -66577 -1;
#X msg 3554 621  \; cnv-5-3 color -16777160 0 0;
#X obj 3554 581 r row-3;
#X obj 176 112 cnv 15 31 31 empty cnv-5-3 empty 20 12 0 14 -262144 -66577 -1;
#X msg 3827 621  \; cnv-2-4 color -16777160 0 0;
#X obj 3827 581 r row-4;
#X obj 80 144 cnv 15 31 31 empty cnv-2-4 empty 20 12 0 14 -262144 -66577 -1;
#X msg 4100 621  \; cnv-4-4 color -16720162 0 0;
#X obj 4100 581 r row-4;
#X obj 144 144 cnv 15 31 31 empty cnv-4-4 empty 20 12 0 14 -262144 -66577 -1;
#X msg 4373 621  \; cnv-6-4 color -16777160 0 0;
#X obj 4373 581 r row-4;
#X obj 208 144 cnv 15 31 31 empty cnv-6-4 empty 20 12 0 14 -262144 -66577 -1;
#X msg 4646 621  \; cnv-4-5 color -16720162 0 0;
#X obj 4646 581 r row-5;
#X obj 144 176 cnv 15 31 31 empty cnv-4-5 empty 20 12 0 14 -262144 -66577 -1;
#X msg 4919 621  \; cnv-4-6 color -16720162 0 0;
#X obj 4919 581 r row-6;
#X obj 144 208 cnv 15 31 31 empty cnv-4-6 empty 20 12 0 14 -262144 -66577 -1;
#X msg 5192 621  \; cnv-1-7 color -9303028 0 0;
#X obj 5192 581 r row-7;
#X obj 48 240 cnv 15 31 31 empty cnv-1-7 empty 20 12 0 14 -262144 -66577 -1;
#X msg 5458 621  \; cnv-2-7 color -9303028 0 0;
#X obj 5458 581 r row-7;
#X obj 80 240 cnv 15 31 31 empty cnv-2-7 empty 20 12 0 14 -262144 -66577 -1;
#X msg 5724 621  \; cnv-3-7 color -9303028 0 0;
#X obj 5724 581 r row-7;
#X obj 112 240 cnv 15 31 31 empty cnv-3-7 empty 20 12 0 14 -262144 -66577 -1;
#X msg 5990 621  \; cnv-4-7 color -16720162 0 0;
#X obj 5990 581 r row-7;
#X obj 144 240 cnv 15 31 31 empty cnv-4-7 empty 20 12 0 14 -262144 -66577 -1;
#X msg 6263 621  \; cnv-5-7 color -9303028 0 0;
#X obj 6263 581 r row-7;
#X obj 176 240 cnv 15 31 31 empty cnv-5-7 empty 20 12 0 14 -262144 -66577 -1;
#X msg 6529 621  \; cnv-6-7 color -9303028 0 0;
#X obj 6529 581 r row-7;
#X obj 208 240 cnv 15 31 31 empty cnv-6-7 empty 20 12 0 14 -262144 -66577 -1;
#X msg 6795 621  \; cnv-7-7 color -9303028 0 0;
#X obj 6795 581 r row-7;
#X obj 240 240 cnv 15 31 31 empty cnv-7-7 empty 20 12 0 14 -262144 -66577 -1;
#X msg 7061 621  \; cnv-0-8 color -9303028 0 0;
#X obj 7061 581 r row-8;
#X obj 16 272 cnv 15 31 31 empty cnv-0-8 empty 20 12 0 14 -262144 -66577 -1;
#X msg 7327 621  \; cnv-1-8 color -9303028 0 0;
#X obj 7327 581 r row-8;
#X obj 48 272 cnv 15 31 31 empty cnv-1-8 empty 20 12 0 14 -262144 -66577 -1;
#X msg 7593 621  \; cnv-2-8 color -9303028 0 0;
#X obj 7593 581 r row-8;
#X obj 80 272 cnv 15 31 31 empty cnv-2-8 empty 20 12 0 14 -262144 -66577 -1;
#X msg 7859 621  \; cnv-3-8 color -9303028 0 0;
#X obj 7859 581 r row-8;
#X obj 112 272 cnv 15 31 31 empty cnv-3-8 empty 20 12 0 14 -262144 -66577 -1;
#X msg 8125 621  \; cnv-4-8 color -16720162 0 0;
#X obj 8125 581 r row-8;
#X obj 144 272 cnv 15 31 31 empty cnv-4-8 empty 20 12 0 14 -262144 -66577 -1;
#X msg 8398 621  \; cnv-5-8 color -9303028 0 0;
#X obj 8398 581 r row-8;
#X obj 176 272 cnv 15 31 31 empty cnv-5-8 empty 20 12 0 14 -262144 -66577 -1;
#X msg 8664 621  \; cnv-6-8 color -9303028 0 0;
#X obj 8664 581 r row-8;
#X obj 208 272 cnv 15 31 31 empty cnv-6-8 empty 20 12 0 14 -262144 -66577 -1;
#X msg 8930 621  \; cnv-7-8 color -9303028 0 0;
#X obj 8930 581 r row-8;
#X obj 240 272 cnv 15 31 31 empty cnv-7-8 empty 20 12 0 14 -262144 -66577 -1;
#X msg 9196 621  \; cnv-8-8 color -9303028 0 0;
#X obj 9196 581 r row-8;
#X obj 272 272 cnv 15 31 31 empty cnv-8-8 empty 20 12 0 14 -262144 -66577 -1;
#X msg 9462 621  \; cnv-0-9 color -7917263 0 0;
#X obj 9462 581 r row-9;
#X obj 16 304 cnv 15 31 31 empty cnv-0-9 empty 20 12 0 14 -262144 -66577 -1;
#X msg 9728 621  \; cnv-1-9 color -9303028 0 0;
#X obj 9728 581 r row-9;
#X obj 48 304 cnv 15 31 31 empty cnv-1-9 empty 20 12 0 14 -262144 -66577 -1;
#X msg 9994 621  \; cnv-2-9 color -9303028 0 0;
#X obj 9994 581 r row-9;
#X obj 80 304 cnv 15 31 31 empty cnv-2-9 empty 20 12 0 14 -262144 -66577 -1;
#X msg 10260 621  \; cnv-3-9 color -9303028 0 0;
#X obj 10260 581 r row-9;
#X obj 112 304 cnv 15 31 31 empty cnv-3-9 empty 20 12 0 14 -262144 -66577 -1;
#X msg 10526 621  \; cnv-4-9 color -9303028 0 0;
#X obj 10526 581 r row-9;
#X obj 144 304 cnv 15 31 31 empty cnv-4-9 empty 20 12 0 14 -262144 -66577 -1;
#X msg 10792 621  \; cnv-5-9 color -9303028 0 0;
#X obj 10792 581 r row-9;
#X obj 176 304 cnv 15 31 31 empty cnv-5-9 empty 20 12 0 14 -262144 -66577 -1;
#X msg 11058 621  \; cnv-6-9 color -9303028 0 0;
#X obj 11058 581 r row-9;
#X obj 208 304 cnv 15 31 31 empty cnv-6-9 empty 20 12 0 14 -262144 -66577 -1;
#X msg 11324 621  \; cnv-7-9 color -9303028 0 0;
#X obj 11324 581 r row-9;
#X obj 240 304 cnv 15 31 31 empty cnv-7-9 empty 20 12 0 14 -262144 -66577 -1;
#X msg 11590 621  \; cnv-8-9 color -7917263 0 0;
#X obj 11590 581 r row-9;
#X obj 272 304 cnv 15 31 31 empty cnv-8-9 empty 20 12 0 14 -262144 -66577 -1;
#X msg 11856 621  \; cnv-0-10 color -10379521 0 0;
#X obj 11856 581 r row-10;
#X obj 16 336 cnv 15 31 31 empty cnv-0-10 empty 20 12 0 14 -262144 -66577 -1;
#X msg 12136 621  \; cnv-1-10 color -7917263 0 0;
#X obj 12136 581 r row-10;
#X obj 48 336 cnv 15 31 31 empty cnv-1-10 empty 20 12 0 14 -262144 -66577 -1;
#X msg 12409 621  \; cnv-2-10 color -7917263 0 0;
#X obj 12409 581 r row-10;
#X obj 80 336 cnv 15 31 31 empty cnv-2-10 empty 20 12 0 14 -262144 -66577 -1;
#X msg 12682 621  \; cnv-3-10 color -9303028 0 0;
#X obj 12682 581 r row-10;
#X obj 112 336 cnv 15 31 31 empty cnv-3-10 empty 20 12 0 14 -262144 -66577 -1;
#X msg 12955 621  \; cnv-4-10 color -7917263 0 0;
#X obj 12955 581 r row-10;
#X obj 144 336 cnv 15 31 31 empty cnv-4-10 empty 20 12 0 14 -262144 -66577 -1;
#X msg 13228 621  \; cnv-5-10 color -9303028 0 0;
#X obj 13228 581 r row-10;
#X obj 176 336 cnv 15 31 31 empty cnv-5-10 empty 20 12 0 14 -262144 -66577 -1;
#X msg 13501 621  \; cnv-6-10 color -7917263 0 0;
#X obj 13501 581 r row-10;
#X obj 208 336 cnv 15 31 31 empty cnv-6-10 empty 20 12 0 14 -262144 -66577 -1;
#X msg 13774 621  \; cnv-7-10 color -7917263 0 0;
#X obj 13774 581 r row-10;
#X obj 240 336 cnv 15 31 31 empty cnv-7-10 empty 20 12 0 14 -262144 -66577 -1;
#X msg 14047 621  \; cnv-8-10 color -8148766 0 0;
#X obj 14047 581 r row-10;
#X obj 272 336 cnv 15 31 31 empty cnv-8-10 empty 20 12 0 14 -262144 -66577 -1;
#X msg 14320 621  \; cnv-0-11 color -10379521 0 0;
#X obj 14320 581 r row-11;
#X obj 16 368 cnv 15 31 31 empty cnv-0-11 empty 20 12 0 14 -262144 -66577 -1;
#X msg 14600 621  \; cnv-1-11 color -10379521 0 0;
#X obj 14600 581 r row-11;
#X obj 48 368 cnv 15 31 31 empty cnv-1-11 empty 20 12 0 14 -262144 -66577 -1;
#X msg 14880 621  \; cnv-2-11 color -10379521 0 0;
#X obj 14880 581 r row-11;
#X obj 80 368 cnv 15 31 31 empty cnv-2-11 empty 20 12 0 14 -262144 -66577 -1;
#X msg 15160 621  \; cnv-3-11 color -9303028 0 0;
#X obj 15160 581 r row-11;
#X obj 112 368 cnv 15 31 31 empty cnv-3-11 empty 20 12 0 14 -262144 -66577 -1;
#X msg 15433 621  \; cnv-4-11 color -10379521 0 0;
#X obj 15433 581 r row-11;
#X obj 144 368 cnv 15 31 31 empty cnv-4-11 empty 20 12 0 14 -262144 -66577 -1;
#X msg 15713 621  \; cnv-5-11 color -9303028 0 0;
#X obj 15713 581 r row-11;
#X obj 176 368 cnv 15 31 31 empty cnv-5-11 empty 20 12 0 14 -262144 -66577 -1;
#X msg 15986 621  \; cnv-6-11 color -10379521 0 0;
#X obj 15986 581 r row-11;
#X obj 208 368 cnv 15 31 31 empty cnv-6-11 empty 20 12 0 14 -262144 -66577 -1;
#X msg 16266 621  \; cnv-7-11 color -8148766 0 0;
#X obj 16266 581 r row-11;
#X obj 240 368 cnv 15 31 31 empty cnv-7-11 empty 20 12 0 14 -262144 -66577 -1;
#X msg 16539 621  \; cnv-8-11 color -8148766 0 0;
#X obj 16539 581 r row-11;
#X obj 272 368 cnv 15 31 31 empty cnv-8-11 empty 20 12 0 14 -262144 -66577 -1;
#X msg 16812 621  \; cnv-0-12 color -16774264 0 0;
#X obj 16812 581 r row-12;
#X obj 16 400 cnv 15 31 31 empty cnv-0-12 empty 20 12 0 14 -262144 -66577 -1;
#X msg 17092 621  \; cnv-1-12 color -10379521 0 0;
#X obj 17092 581 r row-12;
#X obj 48 400 cnv 15 31 31 empty cnv-1-12 empty 20 12 0 14 -262144 -66577 -1;
#X msg 17372 621  \; cnv-2-12 color -10379521 0 0;
#X obj 17372 581 r row-12;
#X obj 80 400 cnv 15 31 31 empty cnv-2-12 empty 20 12 0 14 -262144 -66577 -1;
#X msg 17652 621  \; cnv-3-12 color -9303028 0 0;
#X obj 17652 581 r row-12;
#X obj 112 400 cnv 15 31 31 empty cnv-3-12 empty 20 12 0 14 -262144 -66577 -1;
#X msg 17925 621  \; cnv-4-12 color -10379521 0 0;
#X obj 17925 581 r row-12;
#X obj 144 400 cnv 15 31 31 empty cnv-4-12 empty 20 12 0 14 -262144 -66577 -1;
#X msg 18205 621  \; cnv-5-12 color -10379521 0 0;
#X obj 18205 581 r row-12;
#X obj 176 400 cnv 15 31 31 empty cnv-5-12 empty 20 12 0 14 -262144 -66577 -1;
#X msg 18485 621  \; cnv-6-12 color -8148766 0 0;
#X obj 18485 581 r row-12;
#X obj 208 400 cnv 15 31 31 empty cnv-6-12 empty 20 12 0 14 -262144 -66577 -1;
#X msg 18758 621  \; cnv-7-12 color -8148766 0 0;
#X obj 18758 581 r row-12;
#X obj 240 400 cnv 15 31 31 empty cnv-7-12 empty 20 12 0 14 -262144 -66577 -1;
#X msg 19031 621  \; cnv-8-12 color -14405995 0 0;
#X obj 19031 581 r row-12;
#X obj 272 400 cnv 15 31 31 empty cnv-8-12 empty 20 12 0 14 -262144 -66577 -1;
#X msg 19311 621  \; cnv-0-13 color -16774264 0 0;
#X obj 19311 581 r row-13;
#X obj 16 432 cnv 15 31 31 empty cnv-0-13 empty 20 12 0 14 -262144 -66577 -1;
#X msg 19591 621  \; cnv-1-13 color -16774264 0 0;
#X obj 19591 581 r row-13;
#X obj 48 432 cnv 15 31 31 empty cnv-1-13 empty 20 12 0 14 -262144 -66577 -1;
#X msg 19871 621  \; cnv-2-13 color -16774264 0 0;
#X obj 19871 581 r row-13;
#X obj 80 432 cnv 15 31 31 empty cnv-2-13 empty 20 12 0 14 -262144 -66577 -1;
#X msg 20151 621  \; cnv-3-13 color -9303028 0 0;
#X obj 20151 581 r row-13;
#X obj 112 432 cnv 15 31 31 empty cnv-3-13 empty 20 12 0 14 -262144 -66577 -1;
#X msg 20424 621  \; cnv-4-13 color -16774264 0 0;
#X obj 20424 581 r row-13;
#X obj 144 432 cnv 15 31 31 empty cnv-4-13 empty 20 12 0 14 -262144 -66577 -1;
#X msg 20704 621  \; cnv-5-13 color -16774264 0 0;
#X obj 20704 581 r row-13;
#X obj 176 432 cnv 15 31 31 empty cnv-5-13 empty 20 12 0 14 -262144 -66577 -1;
#X msg 20984 621  \; cnv-6-13 color -16774264 0 0;
#X obj 20984 581 r row-13;
#X obj 208 432 cnv 15 31 31 empty cnv-6-13 empty 20 12 0 14 -262144 -66577 -1;
#X msg 21264 621  \; cnv-7-13 color -14405995 0 0;
#X obj 21264 581 r row-13;
#X obj 240 432 cnv 15 31 31 empty cnv-7-13 empty 20 12 0 14 -262144 -66577 -1;
#X msg 21544 621  \; cnv-8-13 color -14405995 0 0;
#X obj 21544 581 r row-13;
#X obj 272 432 cnv 15 31 31 empty cnv-8-13 empty 20 12 0 14 -262144 -66577 -1;
#X msg 21824 621  \; cnv-0-14 color -10379521 0 0;
#X obj 21824 581 r row-14;
#X obj 16 464 cnv 15 31 31 empty cnv-0-14 empty 20 12 0 14 -262144 -66577 -1;
#X msg 22104 621  \; cnv-1-14 color -16774264 0 0;
#X obj 22104 581 r row-14;
#X obj 48 464 cnv 15 31 31 empty cnv-1-14 empty 20 12 0 14 -262144 -66577 -1;
#X msg 22384 621  \; cnv-2-14 color -16774264 0 0;
#X obj 22384 581 r row-14;
#X obj 80 464 cnv 15 31 31 empty cnv-2-14 empty 20 12 0 14 -262144 -66577 -1;
#X msg 22664 621  \; cnv-3-14 color -16774264 0 0;
#X obj 22664 581 r row-14;
#X obj 112 464 cnv 15 31 31 empty cnv-3-14 empty 20 12 0 14 -262144 -66577 -1;
#X msg 22944 621  \; cnv-4-14 color -16774264 0 0;
#X obj 22944 581 r row-14;
#X obj 144 464 cnv 15 31 31 empty cnv-4-14 empty 20 12 0 14 -262144 -66577 -1;
#X msg 23224 621  \; cnv-5-14 color -16774264 0 0;
#X obj 23224 581 r row-14;
#X obj 176 464 cnv 15 31 31 empty cnv-5-14 empty 20 12 0 14 -262144 -66577 -1;
#X msg 23504 621  \; cnv-6-14 color -14405995 0 0;
#X obj 23504 581 r row-14;
#X obj 208 464 cnv 15 31 31 empty cnv-6-14 empty 20 12 0 14 -262144 -66577 -1;
#X msg 23784 621  \; cnv-7-14 color -14405995 0 0;
#X obj 23784 581 r row-14;
#X obj 240 464 cnv 15 31 31 empty cnv-7-14 empty 20 12 0 14 -262144 -66577 -1;
#X msg 24064 621  \; cnv-8-14 color -8148766 0 0;
#X obj 24064 581 r row-14;
#X obj 272 464 cnv 15 31 31 empty cnv-8-14 empty 20 12 0 14 -262144 -66577 -1;
#X msg 24337 621  \; cnv-0-15 color -10379521 0 0;
#X obj 24337 581 r row-15;
#X obj 16 496 cnv 15 31 31 empty cnv-0-15 empty 20 12 0 14 -262144 -66577 -1;
#X msg 24617 621  \; cnv-1-15 color -10379521 0 0;
#X obj 24617 581 r row-15;
#X obj 48 496 cnv 15 31 31 empty cnv-1-15 empty 20 12 0 14 -262144 -66577 -1;
#X msg 24897 621  \; cnv-2-15 color -10379521 0 0;
#X obj 24897 581 r row-15;
#X obj 80 496 cnv 15 31 31 empty cnv-2-15 empty 20 12 0 14 -262144 -66577 -1;
#X msg 25177 621  \; cnv-3-15 color -10379521 0 0;
#X obj 25177 581 r row-15;
#X obj 112 496 cnv 15 31 31 empty cnv-3-15 empty 20 12 0 14 -262144 -66577 -1;
#X msg 25457 621  \; cnv-4-15 color -10379521 0 0;
#X obj 25457 581 r row-15;
#X obj 144 496 cnv 15 31 31 empty cnv-4-15 empty 20 12 0 14 -262144 -66577 -1;
#X msg 25737 621  \; cnv-5-15 color -10379521 0 0;
#X obj 25737 581 r row-15;
#X obj 176 496 cnv 15 31 31 empty cnv-5-15 empty 20 12 0 14 -262144 -66577 -1;
#X msg 26017 621  \; cnv-6-15 color -10379521 0 0;
#X obj 26017 581 r row-15;
#X obj 208 496 cnv 15 31 31 empty cnv-6-15 empty 20 12 0 14 -262144 -66577 -1;
#X msg 26297 621  \; cnv-7-15 color -8148766 0 0;
#X obj 26297 581 r row-15;
#X obj 240 496 cnv 15 31 31 empty cnv-7-15 empty 20 12 0 14 -262144 -66577 -1;
#X msg 26570 621  \; cnv-8-15 color -8148766 0 0;
#X obj 26570 581 r row-15;
#X obj 272 496 cnv 15 31 31 empty cnv-8-15 empty 20 12 0 14 -262144 -66577 -1;
#X msg 26843 621  \; cnv-1-16 color -10379521 0 0;
#X obj 26843 581 r row-16;
#X obj 48 528 cnv 15 31 31 empty cnv-1-16 empty 20 12 0 14 -262144 -66577 -1;
#X msg 27123 621  \; cnv-2-16 color -10379521 0 0;
#X obj 27123 581 r row-16;
#X obj 80 528 cnv 15 31 31 empty cnv-2-16 empty 20 12 0 14 -262144 -66577 -1;
#X msg 27403 621  \; cnv-3-16 color -10379521 0 0;
#X obj 27403 581 r row-16;
#X obj 112 528 cnv 15 31 31 empty cnv-3-16 empty 20 12 0 14 -262144 -66577 -1;
#X msg 27683 621  \; cnv-4-16 color -10379521 0 0;
#X obj 27683 581 r row-16;
#X obj 144 528 cnv 15 31 31 empty cnv-4-16 empty 20 12 0 14 -262144 -66577 -1;
#X msg 27963 621  \; cnv-5-16 color -10379521 0 0;
#X obj 27963 581 r row-16;
#X obj 176 528 cnv 15 31 31 empty cnv-5-16 empty 20 12 0 14 -262144 -66577 -1;
#X msg 28243 621  \; cnv-6-16 color -8148766 0 0;
#X obj 28243 581 r row-16;
#X obj 208 528 cnv 15 31 31 empty cnv-6-16 empty 20 12 0 14 -262144 -66577 -1;
#X msg 28516 621  \; cnv-7-16 color -8148766 0 0;
#X obj 28516 581 r row-16;
#X obj 240 528 cnv 15 31 31 empty cnv-7-16 empty 20 12 0 14 -262144 -66577 -1;
#X obj 28789 661 counter;
#X obj 28789 621 b;
#X obj 28789 581 r image-reveal;
#X obj 28789 741 f;
#X obj 28789 701 route 0 1 6 7 12 13 19 20;
#X obj 28789 901 + 16;
#X obj 28789 861 * -1;
#X obj 28789 821 moses 17;
#X obj 28789 781 counter;
#X msg 28789 941  \; row-\$1 bang;
#X connect 1 0 0 0;
#X connect 4 0 3 0;
#X connect 7 0 6 0;
#X connect 10 0 9 0;
#X connect 13 0 12 0;
#X connect 16 0 15 0;
#X connect 19 0 18 0;
#X connect 22 0 21 0;
#X connect 25 0 24 0;
#X connect 28 0 27 0;
#X connect 31 0 30 0;
#X connect 34 0 33 0;
#X connect 37 0 36 0;
#X connect 40 0 39 0;
#X connect 43 0 42 0;
#X connect 46 0 45 0;
#X connect 49 0 48 0;
#X connect 52 0 51 0;
#X connect 55 0 54 0;
#X connect 58 0 57 0;
#X connect 61 0 60 0;
#X connect 64 0 63 0;
#X connect 67 0 66 0;
#X connect 70 0 69 0;
#X connect 73 0 72 0;
#X connect 76 0 75 0;
#X connect 79 0 78 0;
#X connect 82 0 81 0;
#X connect 85 0 84 0;
#X connect 88 0 87 0;
#X connect 91 0 90 0;
#X connect 94 0 93 0;
#X connect 97 0 96 0;
#X connect 100 0 99 0;
#X connect 103 0 102 0;
#X connect 106 0 105 0;
#X connect 109 0 108 0;
#X connect 112 0 111 0;
#X connect 115 0 114 0;
#X connect 118 0 117 0;
#X connect 121 0 120 0;
#X connect 124 0 123 0;
#X connect 127 0 126 0;
#X connect 130 0 129 0;
#X connect 133 0 132 0;
#X connect 136 0 135 0;
#X connect 139 0 138 0;
#X connect 142 0 141 0;
#X connect 145 0 144 0;
#X connect 148 0 147 0;
#X connect 151 0 150 0;
#X connect 154 0 153 0;
#X connect 157 0 156 0;
#X connect 160 0 159 0;
#X connect 163 0 162 0;
#X connect 166 0 165 0;
#X connect 169 0 168 0;
#X connect 172 0 171 0;
#X connect 175 0 174 0;
#X connect 178 0 177 0;
#X connect 181 0 180 0;
#X connect 184 0 183 0;
#X connect 187 0 186 0;
#X connect 190 0 189 0;
#X connect 193 0 192 0;
#X connect 196 0 195 0;
#X connect 199 0 198 0;
#X connect 202 0 201 0;
#X connect 205 0 204 0;
#X connect 208 0 207 0;
#X connect 211 0 210 0;
#X connect 214 0 213 0;
#X connect 217 0 216 0;
#X connect 220 0 219 0;
#X connect 223 0 222 0;
#X connect 226 0 225 0;
#X connect 229 0 228 0;
#X connect 232 0 231 0;
#X connect 235 0 234 0;
#X connect 238 0 237 0;
#X connect 241 0 240 0;
#X connect 244 0 243 0;
#X connect 247 0 246 0;
#X connect 250 0 249 0;
#X connect 253 0 252 0;
#X connect 256 0 255 0;
#X connect 259 0 258 0;
#X connect 262 0 261 0;
#X connect 265 0 264 0;
#X connect 268 0 267 0;
#X connect 271 0 270 0;
#X connect 274 0 273 0;
#X connect 277 0 276 0;
#X connect 280 0 279 0;
#X connect 283 0 282 0;
#X connect 286 0 285 0;
#X connect 289 0 288 0;
#X connect 292 0 291 0;
#X connect 295 0 294 0;
#X connect 298 0 297 0;
#X connect 301 0 300 0;
#X connect 304 0 303 0;
#X connect 307 0 306 0;
#X connect 310 0 309 0;
#X connect 313 0 312 0;
#X connect 315 0 319 0;
#X connect 316 0 315 0;
#X connect 317 0 316 0;
#X connect 318 0 323 0;
#X connect 319 8 318 0;
#X connect 320 0 324 0;
#X connect 321 0 320 0;
#X connect 322 0 321 0;
#X connect 323 0 322 0;
#X coords 0 1 100 -1 320 576 2 0 0;