#N canvas 0 0 450 300 10;
#X obj 5 45 t b b;
#X obj 5 5 loadbang;
#X obj 5 245 b;
#X obj 5 205 delay;
#X obj 5 165 nth;
#X obj 5 285 counter;
#X obj 82 125 list;
#X msg 82 85 2052 490 236 698 625 631 1230 441 220 593 619 615 1086 397 226 637 658 744 825 892 490 211 651 589 563;
#X obj 82 365 outlet;
#X obj 82 325 nth;
#X obj 82 285 counter;
#X obj 320 125 list;
#X msg 320 85 2 2 4 2 7 6 2 2 4 2 9 7 2 2 14 11 7 6 4 12 12 11 7 9 7;
#X connect 0 0 5 0;
#X connect 0 1 7 0;
#X connect 0 1 12 0;
#X connect 1 0 0 0;
#X connect 2 0 5 0;
#X connect 2 0 10 0;
#X connect 3 0 2 0;
#X connect 4 0 3 0;
#X connect 5 0 4 0;
#X connect 6 0 4 1;
#X connect 7 0 6 0;
#X connect 9 0 8 0;
#X connect 10 0 9 0;
#X connect 11 0 9 1;
#X connect 12 0 11 0;