#N canvas 0 0 450 300 10;
#X obj 0 0 inlet;
#X obj 5 125 vline~;
#X msg 5 85 1 15 0  \, 0 615 15;
#X obj 5 45 b;
#X obj 159 125 vline~;
#X msg 159 85 1 50 0  \, 0 100 50;
#X obj 159 45 b;
#X obj 313 85 mtof;
#X obj 313 45 + 72;
#X obj 313 245 +~;
#X obj 313 125 osc~;
#X obj 348 205 *~ 0.300000;
#X obj 348 165 osc~;
#X obj 348 125 * 2;
#X obj 397 205 *~ 0.100000;
#X obj 397 165 osc~;
#X obj 397 125 * 4;
#X obj 446 245 lop~;
#X obj 446 205 expr~ \$v1 * 2 - 1;
#X obj 446 165 phasor~ 0;
#X obj 446 125 / 8;
#X obj 572 125 / 16;
#X obj 5 365 outlet~;
#X obj 5 325 *~ 0.100000;
#X obj 5 285 *~;
#X obj 159 285 *~;
#X connect 0 0 3 0;
#X connect 0 0 6 0;
#X connect 0 0 8 0;
#X connect 1 0 24 1;
#X connect 2 0 1 0;
#X connect 3 0 2 0;
#X connect 4 0 25 1;
#X connect 5 0 4 0;
#X connect 6 0 5 0;
#X connect 7 0 10 0;
#X connect 7 0 13 0;
#X connect 7 0 16 0;
#X connect 7 0 20 0;
#X connect 7 0 21 0;
#X connect 8 0 7 0;
#X connect 9 0 24 0;
#X connect 10 0 9 0;
#X connect 11 0 9 0;
#X connect 12 0 11 0;
#X connect 13 0 12 0;
#X connect 14 0 9 0;
#X connect 15 0 14 0;
#X connect 16 0 15 0;
#X connect 17 0 25 0;
#X connect 18 0 17 0;
#X connect 19 0 18 0;
#X connect 20 0 19 0;
#X connect 21 0 17 1;
#X connect 23 0 22 0;
#X connect 24 0 23 0;
#X connect 25 0 23 0;