#N canvas 1104 308 350 510 10;
#X obj 13 33 inlet~;
#X obj 124 32 inlet;
#X floatatom 124 241 5 0 0 0 - - -;
#X obj 125 362 line;
#X obj 13 407 *~;
#X obj 26 446 outlet~;
#X obj 155 450 outlet;
#X obj 178 33 inlet;
#X obj 204 149 bng 15 250 50 0 empty empty empty 17 7 0 10 -262144
-1 -1;
#X obj 179 148 bng 15 250 50 0 empty empty empty 17 7 0 10 -262144
-1 -1;
#X obj 258 105 route bang;
#X msg 205 182 1;
#X msg 30 213 1;
#X obj 188 84 tgl 15 0 empty empty empty 17 7 0 10 -262144 -1 -1 1
1;
#X msg 232 312 1;
#X floatatom 201 398 5 0 0 0 - - -;
#X msg 125 312 0 \$1;
#X obj 205 224 t b b;
#X obj 179 105 route 0 1;
#X obj 268 83 bng 15 250 50 0 empty empty empty 17 7 0 10 -262144 -1
-1;
#X connect 0 0 4 0;
#X connect 1 0 2 0;
#X connect 2 0 16 0;
#X connect 3 0 4 1;
#X connect 3 0 15 0;
#X connect 3 0 6 0;
#X connect 4 0 5 0;
#X connect 7 0 10 0;
#X connect 7 0 18 0;
#X connect 8 0 11 0;
#X connect 9 0 12 0;
#X connect 10 0 8 0;
#X connect 11 0 17 0;
#X connect 12 0 4 1;
#X connect 13 0 18 0;
#X connect 14 0 3 0;
#X connect 16 0 3 0;
#X connect 17 0 2 0;
#X connect 17 1 14 0;
#X connect 18 0 9 0;
#X connect 18 1 8 0;
#X connect 19 0 10 0;
