#N canvas 735 23 479 429 10;
#X obj 220 183 inlet;
#X obj 107 265 outlet~;
#X obj 107 86 noise~;
#X obj 107 117 hip~;
#X obj 107 151 lop~;
#X obj 107 230 attack~;
#X obj 220 209 bng 15 250 50 0 empty empty empty 17 7 0 10 -262144
-1 -1;
#X msg 186 87 780;
#X msg 185 117 660;
#X obj 107 191 *~ 3;
#X msg 185 153 135;
#X obj 153 54 loadbang;
#X connect 0 0 6 0;
#X connect 2 0 3 0;
#X connect 3 0 4 0;
#X connect 4 0 9 0;
#X connect 5 0 1 0;
#X connect 6 0 5 2;
#X connect 7 0 3 1;
#X connect 8 0 4 1;
#X connect 9 0 5 0;
#X connect 10 0 5 1;
#X connect 11 0 7 0;
#X connect 11 0 8 0;
#X connect 11 0 10 0;
