#N canvas 111 280 1745 482 10;
#X obj 87 22 inlet;
#X obj 87 161 route 0 1 2 3 4 5 6 7 8 9 10 11 12 13 14 15;
#X obj 365 157 tgl 15 0 empty empty empty 17 7 0 10 -262144 -1 -1 0
8;
#X obj 380 157 tgl 15 0 empty empty empty 17 7 0 10 -262144 -1 -1 0
8;
#X obj 395 157 tgl 15 0 empty empty empty 17 7 0 10 -262144 -1 -1 0
10;
#X obj 410 157 tgl 15 0 empty empty empty 17 7 0 10 -262144 -1 -1 0
14;
#X obj 425 157 tgl 15 0 empty empty empty 17 7 0 10 -262144 -1 -1 0
1;
#X obj 440 157 tgl 15 0 empty empty empty 17 7 0 10 -262144 -1 -1 0
1;
#X obj 455 157 tgl 15 0 empty empty empty 17 7 0 10 -262144 -1 -1 0
1;
#X obj 470 157 tgl 15 0 empty empty empty 17 7 0 10 -262144 -1 -1 0
1;
#X obj 485 157 tgl 15 0 empty empty empty 17 7 0 10 -262144 -1 -1 0
1;
#X obj 500 157 tgl 15 0 empty empty empty 17 7 0 10 -262144 -1 -1 0
1;
#X obj 515 157 tgl 15 0 empty empty empty 17 7 0 10 -262144 -1 -1 0
1;
#X obj 530 157 tgl 15 0 empty empty empty 17 7 0 10 -262144 -1 -1 0
1;
#X obj 545 157 tgl 15 0 empty empty empty 17 7 0 10 -262144 -1 -1 0
1;
#X obj 560 157 tgl 15 0 empty empty empty 17 7 0 10 -262144 -1 -1 0
1;
#X obj 575 157 tgl 15 0 empty empty empty 17 7 0 10 -262144 -1 -1 0
1;
#X obj 590 157 tgl 15 0 empty empty empty 17 7 0 10 -262144 -1 -1 0
1;
#X obj 87 262 spigot;
#X obj 369 46 inlet;
#X obj 137 262 spigot;
#X obj 187 262 spigot;
#X obj 237 262 spigot;
#X obj 287 262 spigot;
#X obj 337 262 spigot;
#X obj 387 262 spigot;
#X obj 437 262 spigot;
#X obj 487 262 spigot;
#X obj 537 262 spigot;
#X obj 587 262 spigot;
#X obj 637 262 spigot;
#X obj 687 262 spigot;
#X obj 737 262 spigot;
#X obj 787 262 spigot;
#X obj 837 262 spigot;
#X obj 87 319 bng 15 250 50 0 empty empty empty 17 7 0 10 -262144 -1
-1;
#X obj 137 319 bng 15 250 50 0 empty empty empty 17 7 0 10 -262144
-1 -1;
#X obj 187 319 bng 15 250 50 0 empty empty empty 17 7 0 10 -262144
-1 -1;
#X obj 237 319 bng 15 250 50 0 empty empty empty 17 7 0 10 -262144
-1 -1;
#X obj 287 319 bng 15 250 50 0 empty empty empty 17 7 0 10 -262144
-1 -1;
#X obj 337 319 bng 15 250 50 0 empty empty empty 17 7 0 10 -262144
-1 -1;
#X obj 387 319 bng 15 250 50 0 empty empty empty 17 7 0 10 -262144
-1 -1;
#X obj 437 319 bng 15 250 50 0 empty empty empty 17 7 0 10 -262144
-1 -1;
#X obj 487 319 bng 15 250 50 0 empty empty empty 17 7 0 10 -262144
-1 -1;
#X obj 537 319 bng 15 250 50 0 empty empty empty 17 7 0 10 -262144
-1 -1;
#X obj 587 319 bng 15 250 50 0 empty empty empty 17 7 0 10 -262144
-1 -1;
#X obj 637 319 bng 15 250 50 0 empty empty empty 17 7 0 10 -262144
-1 -1;
#X obj 687 319 bng 15 250 50 0 empty empty empty 17 7 0 10 -262144
-1 -1;
#X obj 737 319 bng 15 250 50 0 empty empty empty 17 7 0 10 -262144
-1 -1;
#X obj 787 319 bng 15 250 50 0 empty empty empty 17 7 0 10 -262144
-1 -1;
#X obj 837 319 bng 15 250 50 0 empty empty empty 17 7 0 10 -262144
-1 -1;
#X obj 87 59 i;
#X obj 367 113 route 0 1 2 3 4 5 6 7 8 9 10 11 12 13 14 15;
#X obj 731 51 unpack 0 1 2 3 4 5 6 7 8 9 10 11 12 13 14 15;
#X floatatom 367 68 5 0 0 0 - - -, f 5;
#X obj 731 19 t l b;
#X msg 758 140 0;
#X obj 88 441 outlet;
#X obj 87 364 s \$0-kick;
#X obj 88 409 r \$0-kick;
#X obj 616 74 r \$0-kick;
#X obj 620 157 bng 15 250 50 0 empty empty empty 17 7 0 10 -258113
-1 -1;
#X obj 87 92 upEdge;
#X obj 1148 172 t b f;
#X obj 1196 172 t b f;
#X obj 1244 172 t b f;
#X obj 1292 172 t b f;
#X obj 1340 172 t b f;
#X obj 1388 172 t b f;
#X obj 1436 172 t b f;
#X obj 1484 172 t b f;
#X obj 1532 172 t b f;
#X obj 1580 172 t b f;
#X obj 1628 172 t b f;
#X obj 1676 172 t b f;
#X obj 1724 172 t b f;
#X obj 1772 172 t b f;
#X obj 1820 172 t b f;
#X obj 891 189 pack f f f f f f f f f f f f f f f f, f 38;
#X obj 921 140 unpack f f f f f f f f f f f f f f f f;
#X msg 1074 239 0 0 0 0 0 0 0 0 0 0 0 0 0 0 0 0;
#X obj 921 217 clip-load-save-clear \$1 \$2;
#X text 1095 216 * ** * *;
#X text 927 171 * ** * *;
#X text 906 238 * ** * *;
#X text 1009 275 * ** * *;
#X text 989 245 * magic *;
#X text 1062 101 * ** * *;
#X text 1164 138 * ** * *;
#X text 1144 108 * magic *;
#X text 953 117 * ** * *;
#X connect 0 0 51 0;
#X connect 1 0 18 0;
#X connect 1 1 20 0;
#X connect 1 2 21 0;
#X connect 1 3 22 0;
#X connect 1 4 23 0;
#X connect 1 5 24 0;
#X connect 1 6 25 0;
#X connect 1 7 26 0;
#X connect 1 8 27 0;
#X connect 1 9 28 0;
#X connect 1 10 29 0;
#X connect 1 11 30 0;
#X connect 1 12 31 0;
#X connect 1 13 32 0;
#X connect 1 14 33 0;
#X connect 1 15 34 0;
#X connect 2 0 18 1;
#X connect 2 0 78 0;
#X connect 3 0 20 1;
#X connect 3 0 63 0;
#X connect 4 0 21 1;
#X connect 4 0 64 0;
#X connect 5 0 22 1;
#X connect 5 0 65 0;
#X connect 6 0 23 1;
#X connect 6 0 66 0;
#X connect 7 0 24 1;
#X connect 7 0 67 0;
#X connect 8 0 25 1;
#X connect 8 0 68 0;
#X connect 9 0 26 1;
#X connect 9 0 69 0;
#X connect 10 0 27 1;
#X connect 10 0 70 0;
#X connect 11 0 28 1;
#X connect 11 0 71 0;
#X connect 12 0 29 1;
#X connect 12 0 72 0;
#X connect 13 0 30 1;
#X connect 13 0 73 0;
#X connect 14 0 31 1;
#X connect 14 0 74 0;
#X connect 15 0 32 1;
#X connect 15 0 75 0;
#X connect 16 0 33 1;
#X connect 16 0 76 0;
#X connect 17 0 34 1;
#X connect 17 0 77 0;
#X connect 18 0 35 0;
#X connect 19 0 55 0;
#X connect 20 0 36 0;
#X connect 21 0 37 0;
#X connect 22 0 38 0;
#X connect 23 0 39 0;
#X connect 24 0 40 0;
#X connect 25 0 41 0;
#X connect 26 0 42 0;
#X connect 27 0 43 0;
#X connect 28 0 44 0;
#X connect 29 0 45 0;
#X connect 30 0 46 0;
#X connect 31 0 47 0;
#X connect 32 0 48 0;
#X connect 33 0 49 0;
#X connect 34 0 50 0;
#X connect 35 0 58 0;
#X connect 36 0 58 0;
#X connect 37 0 58 0;
#X connect 38 0 58 0;
#X connect 39 0 58 0;
#X connect 40 0 58 0;
#X connect 41 0 58 0;
#X connect 42 0 58 0;
#X connect 43 0 58 0;
#X connect 44 0 58 0;
#X connect 45 0 58 0;
#X connect 46 0 58 0;
#X connect 47 0 58 0;
#X connect 48 0 58 0;
#X connect 49 0 58 0;
#X connect 50 0 58 0;
#X connect 51 0 62 0;
#X connect 52 0 2 0;
#X connect 52 1 3 0;
#X connect 52 2 4 0;
#X connect 52 3 5 0;
#X connect 52 4 6 0;
#X connect 52 5 7 0;
#X connect 52 6 8 0;
#X connect 52 7 9 0;
#X connect 52 8 10 0;
#X connect 52 9 11 0;
#X connect 52 10 12 0;
#X connect 52 11 13 0;
#X connect 52 12 14 0;
#X connect 52 13 15 0;
#X connect 52 14 16 0;
#X connect 52 15 17 0;
#X connect 53 0 54 0;
#X connect 53 1 54 0;
#X connect 53 2 54 0;
#X connect 53 3 54 0;
#X connect 53 4 54 0;
#X connect 53 5 54 0;
#X connect 53 6 54 0;
#X connect 53 7 54 0;
#X connect 53 8 54 0;
#X connect 53 9 54 0;
#X connect 53 10 54 0;
#X connect 53 11 54 0;
#X connect 53 12 54 0;
#X connect 53 13 54 0;
#X connect 53 14 54 0;
#X connect 53 15 54 0;
#X connect 54 0 52 0;
#X connect 55 0 53 0;
#X connect 55 1 56 0;
#X connect 56 0 2 0;
#X connect 56 0 3 0;
#X connect 56 0 4 0;
#X connect 56 0 5 0;
#X connect 56 0 6 0;
#X connect 56 0 7 0;
#X connect 56 0 8 0;
#X connect 56 0 9 0;
#X connect 56 0 10 0;
#X connect 56 0 11 0;
#X connect 56 0 12 0;
#X connect 56 0 13 0;
#X connect 56 0 14 0;
#X connect 56 0 15 0;
#X connect 56 0 16 0;
#X connect 56 0 17 0;
#X connect 59 0 57 0;
#X connect 60 0 61 0;
#X connect 62 0 1 0;
#X connect 63 0 78 0;
#X connect 63 1 78 1;
#X connect 64 0 78 0;
#X connect 64 1 78 2;
#X connect 65 0 78 0;
#X connect 65 1 78 3;
#X connect 66 0 78 0;
#X connect 66 1 78 4;
#X connect 67 0 78 0;
#X connect 67 1 78 5;
#X connect 68 0 78 0;
#X connect 68 1 78 6;
#X connect 69 0 78 0;
#X connect 69 1 78 7;
#X connect 70 0 78 0;
#X connect 70 1 78 8;
#X connect 71 0 78 0;
#X connect 71 1 78 9;
#X connect 72 0 78 0;
#X connect 72 1 78 10;
#X connect 73 0 78 0;
#X connect 73 1 78 11;
#X connect 74 0 78 0;
#X connect 74 1 78 12;
#X connect 75 0 78 0;
#X connect 75 1 78 13;
#X connect 76 0 78 0;
#X connect 76 1 78 14;
#X connect 77 0 78 0;
#X connect 77 1 78 15;
#X connect 78 0 81 0;
#X connect 79 0 2 0;
#X connect 79 1 3 0;
#X connect 79 2 4 0;
#X connect 79 3 5 0;
#X connect 79 4 6 0;
#X connect 79 5 7 0;
#X connect 79 6 8 0;
#X connect 79 7 9 0;
#X connect 79 8 10 0;
#X connect 79 9 11 0;
#X connect 79 10 12 0;
#X connect 79 11 13 0;
#X connect 79 12 14 0;
#X connect 79 13 15 0;
#X connect 79 14 16 0;
#X connect 79 15 17 0;
#X connect 80 0 79 0;
#X connect 81 0 79 0;
#X connect 81 1 78 0;
#X connect 81 2 80 0;
#X coords 0 -1 1 1 270 32 1 365 140;
