#N canvas 227 592 450 300 10;
#X obj 144 163 accum2;
#X obj 144 185 print output;
#X msg 140 46 1;
#X msg 148 65 2;
#X msg 156 85 3;
#X msg 166 104 bang;
#X msg 176 124 clear;
#X msg 134 22 4 5 6;
#X connect 0 0 1 0;
#X connect 2 0 0 0;
#X connect 3 0 0 0;
#X connect 4 0 0 0;
#X connect 5 0 0 0;
#X connect 6 0 0 0;
#X connect 7 0 0 0;
