#N canvas 160 177 251 159 10;
#X obj 51 63 v de.philippdikmann.debug;
#X obj 18 112 print \$1;
#X obj 18 89 spigot;
#X obj 18 17 inlet;
#X obj 18 39 t a b;
#X connect 0 0 2 1;
#X connect 2 0 1 0;
#X connect 3 0 4 0;
#X connect 4 0 2 0;
#X connect 4 1 0 0;
