#N canvas 49 146 525 526 10;
#X obj 391 275 nth;
#X msg 145 191 b c d f g h j k l m n p q r s t v w x z;
#X msg 397 191 a e i o u y;
#X obj 386 221 list length;
#X obj 353 245 random;
#X obj 136 221 list length;
#X obj 103 245 random;
#X obj 136 274 nth;
#X obj 78 135 t b b b b, f 12;
#X obj 136 311 pack s s, f 43;
#X obj 136 336 for-each;
#X obj 136 358 list fromsymbol;
#X obj 135 433 accum2;
#X msg 164 389 bang;
#X msg 164 411 clear;
#X obj 87 367 t b b;
#X obj 135 455 list tosymbol;
#X obj 78 108 until;
#X obj 51 41 t b b;
#X obj 52 11 inlet;
#X obj 135 477 outlet;
#X obj 122 62 random 2;
#X obj 122 84 + 2;
#X connect 0 0 9 1;
#X connect 1 0 5 0;
#X connect 1 0 7 1;
#X connect 2 0 3 0;
#X connect 2 0 0 1;
#X connect 3 0 4 1;
#X connect 4 0 0 0;
#X connect 5 0 6 1;
#X connect 6 0 7 0;
#X connect 7 0 9 0;
#X connect 8 1 6 0;
#X connect 8 2 4 0;
#X connect 8 3 1 0;
#X connect 8 3 2 0;
#X connect 9 0 10 0;
#X connect 10 0 11 0;
#X connect 11 0 12 0;
#X connect 12 0 16 0;
#X connect 13 0 12 0;
#X connect 14 0 12 0;
#X connect 15 0 14 0;
#X connect 15 1 13 0;
#X connect 16 0 20 0;
#X connect 17 0 8 0;
#X connect 18 0 15 0;
#X connect 18 1 21 0;
#X connect 19 0 18 0;
#X connect 21 0 22 0;
#X connect 22 0 17 0;
